
		<svg
			xmlns="http://www.w3.org/2000/svg"
			viewBox="-4000 0 12000 4000"
		>
			<defs>
	<symbol viewBox="0 0 2296 3056" id="logo">
	<path d="M 2296 0 V 3056 H 0 V 0 Z M 2196 100 H 100 V 2956 H 2196 Z" />

	<path
		d="M 2097 486.7893 L 2096 487.7893 V 315.0833 L 1980.9166 200 H 852.4833 L 200 852.4833 V 1872 H 2096 V 629.2107 L 2097 628.2107 V 486.7893 Z M 1869.9828 1337.0323 L 1574.6414 1632.376 L 1503.9855 1561.7197 L 1426.9706 1484.7043 L 1497.6263 1414.0478 L 1574.6414 1491.0634 L 1799.3269 1266.3761 L 1869.9828 1337.0323 Z M 300 893.9055 L 893.9056 300 H 1939.4944 L 1996 356.5056 V 587.7893 L 811.7893 1772 H 300 V 893.9055 Z"
	/>

	<path
		d="M 2090.6689 2524.5332 C 2089.7793 2502.8457 2080.7793 2485.8662 2063.668 2473.5996 C 2046.5557 2461.333 2023.2012 2455.1992 1993.6006 2455.1992 C 1974.1338 2455.1992 1957.3105 2457.7988 1943.1328 2462.999 C 1928.9541 2468.1992 1918.0664 2475.7559 1910.4658 2485.666 C 1902.8662 2495.5791 1899.1094 2507.6455 1899.1992 2521.8672 C 1899.1094 2537.957 1904.2656 2551.1133 1914.666 2561.334 C 1925.0664 2571.5576 1940.71 2578.4902 1961.5996 2582.1348 L 1997.8672 2588.5342 C 2005.8672 2589.957 2011.7549 2591.8242 2015.5342 2594.1348 C 2019.3115 2596.4473 2021.2441 2599.5576 2021.334 2603.4678 C 2021.2441 2607.7344 2019.001 2611.0244 2014.6006 2613.335 C 2010.2012 2615.6475 2004.6211 2616.8018 1997.8672 2616.8018 C 1989.5107 2616.8018 1982.6006 2615.0479 1977.1338 2611.5352 C 1971.667 2608.0244 1968.4434 2603.0244 1967.4668 2596.5342 H 1894.3994 C 1896.4424 2617.5137 1906.2871 2634.4014 1923.9326 2647.2021 C 1941.5771 2660.002 1966.0439 2666.4023 1997.334 2666.4023 C 2016.2676 2666.4023 2033.1348 2663.4902 2047.9346 2657.6689 S 2074.4229 2643.5811 2083.002 2632.8682 C 2091.5791 2622.1582 2095.9121 2609.5137 2096.002 2594.9346 C 2095.9121 2579.8242 2090.7354 2567.7568 2080.4688 2558.7344 C 2070.2012 2549.7129 2054.5781 2543.29 2033.6006 2539.4668 L 1992 2532 C 1984.1777 2530.5791 1978.9111 2528.5791 1976.2002 2526 C 1973.4873 2523.4229 1972.1768 2520.623 1972.2666 2517.6006 C 1972.1768 2513.333 1974.4004 2510.0459 1978.9336 2507.7334 C 1983.4668 2505.4229 1988.8877 2504.2666 1995.2002 2504.2666 C 2000.0879 2504.2666 2004.5547 2505.0898 2008.6006 2506.7334 C 2012.6445 2508.3789 2015.9551 2510.7129 2018.5342 2513.7334 C 2021.1113 2516.7559 2022.5781 2520.3564 2022.9346 2524.5332 H 2090.6689 Z M 1762.666 2608.8018 C 1755.9092 2608.8018 1750.1533 2606.8682 1745.3994 2603.001 C 1740.6426 2599.1348 1736.999 2593.5801 1734.4658 2586.334 C 1731.9316 2579.0908 1730.665 2570.4014 1730.665 2560.2676 S 1731.9316 2541.4463 1734.4658 2534.2002 C 1736.999 2526.9561 1740.6426 2521.4004 1745.3994 2517.5332 C 1750.1533 2513.667 1755.9092 2511.7334 1762.666 2511.7334 C 1769.4199 2511.7334 1775.2207 2513.667 1780.0664 2517.5332 C 1784.9102 2521.4004 1788.6436 2526.9561 1791.2666 2534.2002 C 1793.8867 2541.4463 1795.1992 2550.1338 1795.1992 2560.2676 C 1795.1992 2570.2236 1793.8867 2578.8242 1791.2666 2586.0674 C 1788.6436 2593.3135 1784.9102 2598.9141 1780.0664 2602.8682 C 1775.2207 2606.8242 1769.4199 2608.8018 1762.666 2608.8018 Z M 1735.4658 2665.3359 C 1745.0654 2665.3359 1753.6201 2663.7568 1761.1328 2660.6025 C 1768.6426 2657.4482 1775.043 2653.1357 1780.333 2647.6689 C 1785.6201 2642.2021 1789.6875 2636.002 1792.5332 2629.0684 H 1794.1328 V 2662.6689 H 1867.2012 V 2389.5986 H 1793.5996 V 2493.5996 H 1792.5332 C 1789.8662 2486.666 1785.9541 2480.2891 1780.7998 2474.4658 C 1775.6436 2468.6455 1769.2432 2463.9785 1761.5996 2460.4658 C 1753.9531 2456.9551 1745.0654 2455.1992 1734.9316 2455.1992 C 1721.4189 2455.1992 1708.5527 2458.7988 1696.3311 2465.999 C 1684.1084 2473.1992 1674.1523 2484.5332 1666.4648 2500 C 1658.7744 2515.4668 1654.9307 2535.5566 1654.9307 2560.2676 C 1654.9307 2583.9141 1658.5977 2603.5137 1665.9307 2619.0684 C 1673.2646 2634.625 1683.042 2646.2246 1695.2646 2653.8691 C 1707.4863 2661.5146 1720.8857 2665.3359 1735.4658 2665.3359 Z M 1510.3994 2662.6689 H 1584 V 2556.001 C 1584 2548.1797 1585.6445 2541.3564 1588.9336 2535.5342 C 1592.2217 2529.7129 1596.7344 2525.1797 1602.4678 2521.9336 C 1608.2012 2518.6895 1614.668 2517.0664 1621.8682 2517.0664 C 1625.6885 2517.0664 1630.2676 2517.3789 1635.6016 2518 C 1640.9346 2518.623 1645.4219 2519.5566 1649.0684 2520.7998 V 2457.999 C 1646.1348 2457.1113 1643.0889 2456.4219 1639.9346 2455.9326 C 1636.7783 2455.4453 1633.6016 2455.1992 1630.4014 2455.1992 C 1619.4678 2455.1992 1609.9346 2458.5322 1601.8008 2465.1992 S 1587.7334 2482.3994 1584 2496.7998 H 1581.8672 V 2457.8662 H 1510.3994 V 2662.6689 Z M 1369.6016 2619.4688 C 1363.3789 2619.4688 1358.2686 2617.958 1354.2686 2614.9346 C 1350.2686 2611.9141 1348.2686 2607.5576 1348.2686 2601.8682 C 1348.2686 2598.3135 1349.1348 2595.0908 1350.8682 2592.2012 C 1352.6016 2589.3135 1355.2686 2586.8682 1358.8682 2584.8682 C 1362.4687 2582.8682 1367.1123 2581.4238 1372.8018 2580.5342 C 1375.7354 2580.0908 1378.5566 2579.6006 1381.2686 2579.0674 C 1383.9795 2578.5342 1386.5566 2577.957 1389.002 2577.334 C 1391.4463 2576.7139 1393.7568 2576.0469 1395.9355 2575.334 C 1398.1133 2574.624 1400.1797 2573.8672 1402.1357 2573.0674 V 2590.1348 C 1402.1357 2596.3574 1400.5791 2601.6475 1397.4687 2606.001 C 1394.3564 2610.3574 1390.3359 2613.6914 1385.4023 2616.002 C 1380.4688 2618.3145 1375.2021 2619.4688 1369.6016 2619.4688 Z M 1345.6016 2665.8691 C 1354.4893 2665.8691 1362.6455 2664.8027 1370.0684 2662.6689 C 1377.4893 2660.5352 1384.1123 2657.1143 1389.9355 2652.4023 C 1395.7568 2647.6914 1400.7129 2641.5146 1404.8027 2633.8682 H 1406.4023 V 2662.6689 H 1475.2031 V 2522.4004 C 1475.2031 2512.8896 1473.0469 2504.0664 1468.7373 2495.9326 C 1464.4238 2487.7998 1458.1807 2480.6895 1450.0029 2474.5996 C 1441.8242 2468.5117 1431.9131 2463.7559 1420.2695 2460.333 C 1408.623 2456.9121 1395.4688 2455.1992 1380.8018 2455.1992 C 1360.4453 2455.1992 1343.4688 2458.3779 1329.8682 2464.7324 C 1316.2676 2471.0889 1305.9346 2479.5332 1298.8672 2490.0664 C 1291.8008 2500.5996 1287.8213 2512.0898 1286.9346 2524.5332 H 1354.6689 C 1355.5557 2518.2227 1358.2021 2513.5332 1362.6016 2510.4668 C 1367.002 2507.4004 1372.7129 2505.8662 1379.7354 2505.8662 C 1386.1357 2505.8662 1391.3799 2507.2891 1395.4688 2510.1338 C 1399.5566 2512.9795 1401.6025 2517.0664 1401.6025 2522.4004 V 2522.9336 C 1401.6025 2526.8457 1400.0459 2529.9795 1396.9355 2532.334 C 1393.8232 2534.6904 1388.7793 2536.5127 1381.8018 2537.8008 C 1374.8232 2539.0898 1365.6016 2540.1797 1354.1348 2541.0674 C 1343.5557 2541.8672 1333.7119 2543.6006 1324.6016 2546.2676 C 1315.4883 2548.9336 1307.5117 2552.8008 1300.668 2557.8672 C 1293.8213 2562.9346 1288.4883 2569.4463 1284.667 2577.4014 C 1280.8447 2585.3574 1278.9336 2594.9346 1278.9336 2606.1348 C 1278.9336 2619.7354 1281.7773 2630.9355 1287.4678 2639.7354 C 1293.1553 2648.5352 1301.001 2655.0918 1311.001 2659.4023 S 1332.5352 2665.8691 1345.6016 2665.8691 Z M 1147.7334 2608.8018 C 1140.9771 2608.8018 1135.2207 2606.8682 1130.4663 2603.001 C 1125.71 2599.1348 1122.0664 2593.5801 1119.5327 2586.334 C 1116.9995 2579.0908 1115.7329 2570.4014 1115.7329 2560.2676 S 1116.9995 2541.4463 1119.5327 2534.2002 C 1122.0664 2526.9561 1125.71 2521.4004 1130.4663 2517.5332 C 1135.2207 2513.667 1140.9771 2511.7334 1147.7334 2511.7334 C 1154.4873 2511.7334 1160.2881 2513.667 1165.1338 2517.5332 C 1169.9775 2521.4004 1173.7109 2526.9561 1176.334 2534.2002 C 1178.9541 2541.4463 1180.2666 2550.1338 1180.2666 2560.2676 C 1180.2666 2570.2236 1178.9541 2578.8242 1176.334 2586.0674 C 1173.7109 2593.3135 1169.9775 2598.9141 1165.1338 2602.8682 C 1160.2881 2606.8242 1154.4873 2608.8018 1147.7334 2608.8018 Z M 1120.5327 2665.3359 C 1130.1328 2665.3359 1138.6875 2663.7568 1146.1997 2660.6025 C 1153.71 2657.4482 1160.1104 2653.1357 1165.4004 2647.6689 C 1170.6875 2642.2021 1174.7549 2636.002 1177.6006 2629.0684 H 1179.2002 V 2662.6689 H 1252.2686 V 2389.5986 H 1178.667 V 2493.5996 H 1177.6006 C 1174.9336 2486.666 1171.0215 2480.2891 1165.8672 2474.4658 C 1160.7109 2468.6455 1154.3105 2463.9785 1146.6665 2460.4658 C 1139.0205 2456.9551 1130.1328 2455.1992 1119.9995 2455.1992 C 1106.4868 2455.1992 1093.6201 2458.7988 1081.3989 2465.999 C 1069.1758 2473.1992 1059.2192 2484.5332 1051.5317 2500 C 1043.8423 2515.4668 1039.9985 2535.5566 1039.9985 2560.2676 C 1039.9985 2583.9141 1043.665 2603.5137 1050.9985 2619.0684 C 1058.332 2634.625 1068.1094 2646.2246 1080.332 2653.8691 C 1092.5532 2661.5146 1105.9536 2665.3359 1120.5327 2665.3359 Z M 877.3315 2547.4668 C 877.4189 2540.7129 878.665 2534.9131 881.0649 2530.0674 C 883.4648 2525.2227 886.9087 2521.4893 891.3984 2518.8672 C 895.8857 2516.2461 901.1528 2514.9336 907.1987 2514.9336 C 916.4424 2514.9336 923.6655 2517.8232 928.8657 2523.6006 C 934.0659 2529.3799 936.6201 2537.334 936.5322 2547.4668 V 2662.6689 H 1010.1333 V 2532 C 1010.2212 2517.1563 1007.3105 2503.9561 1001.3999 2492.3994 C 995.4873 2480.8457 987.1768 2471.7559 976.4663 2465.1328 C 965.7539 2458.5117 953.1533 2455.1992 938.666 2455.1992 C 923.6426 2455.1992 910.5093 2458.8887 899.2651 2466.2656 C 888.019 2473.6455 880.1753 2483.8223 875.7314 2496.7998 H 873.5981 V 2457.8662 H 803.7305 V 2662.6689 H 877.3315 V 2547.4668 Z M 662.9331 2619.4688 C 656.71 2619.4688 651.5996 2617.958 647.5996 2614.9346 C 643.5996 2611.9141 641.5996 2607.5576 641.5996 2601.8682 C 641.5996 2598.3135 642.4663 2595.0908 644.1992 2592.2012 C 645.9326 2589.3135 648.5996 2586.8682 652.1997 2584.8682 S 660.4434 2581.4238 666.1333 2580.5342 C 669.0664 2580.0908 671.8872 2579.6006 674.6001 2579.0674 C 677.3105 2578.5342 679.8877 2577.957 682.3335 2577.334 C 684.7773 2576.7139 687.0874 2576.0469 689.2666 2575.334 C 691.4438 2574.624 693.5107 2573.8672 695.4668 2573.0674 V 2590.1348 C 695.4668 2596.3574 693.9106 2601.6475 690.8003 2606.001 C 687.6875 2610.3574 683.6665 2613.6914 678.7334 2616.002 C 673.7998 2618.3145 668.5332 2619.4688 662.9331 2619.4688 Z M 638.9326 2665.8691 C 647.8203 2665.8691 655.9766 2664.8027 663.3999 2662.6689 C 670.8208 2660.5352 677.4438 2657.1143 683.2666 2652.4023 C 689.0874 2647.6914 694.0439 2641.5146 698.1338 2633.8682 H 699.7334 V 2662.6689 H 768.5347 V 2522.4004 C 768.5347 2512.8896 766.3784 2504.0664 762.0679 2495.9326 C 757.7554 2487.7998 751.5117 2480.6895 743.3345 2474.5996 C 735.1548 2468.5117 725.2446 2463.7559 713.6006 2460.333 C 701.9546 2456.9121 688.8003 2455.1992 674.1333 2455.1992 C 653.7769 2455.1992 636.7993 2458.3779 623.1992 2464.7324 C 609.5991 2471.0889 599.2656 2479.5332 592.1987 2490.0664 S 581.1528 2512.0898 580.2651 2524.5332 H 647.9995 C 648.8872 2518.2227 651.5327 2513.5332 655.9331 2510.4668 C 660.333 2507.4004 666.0435 2505.8662 673.0664 2505.8662 C 679.4668 2505.8662 684.7104 2507.2891 688.8003 2510.1338 C 692.8877 2512.9795 694.9336 2517.0664 694.9336 2522.4004 V 2522.9336 C 694.9336 2526.8457 693.3774 2529.9795 690.2666 2532.334 C 687.1543 2534.6904 682.1104 2536.5127 675.1333 2537.8008 C 668.1538 2539.0898 658.9331 2540.1797 647.4663 2541.0674 C 636.8867 2541.8672 627.043 2543.6006 617.9326 2546.2676 C 608.8198 2548.9336 600.8428 2552.8008 593.9985 2557.8672 C 587.1528 2562.9346 581.8193 2569.4463 577.9985 2577.4014 C 574.1753 2585.3574 572.2651 2594.9346 572.2651 2606.1348 C 572.2651 2619.7354 575.1089 2630.9355 580.7983 2639.7354 C 586.4863 2648.5352 594.332 2655.0918 604.332 2659.4023 C 614.3325 2663.7129 625.8657 2665.8691 638.9326 2665.8691 Z M 443.2017 2408.7988 V 2603.7344 C 443.0225 2618.0479 445.8228 2629.958 451.6016 2639.4687 C 457.3789 2648.9814 466.002 2655.9355 477.4688 2660.3359 C 488.9355 2664.7354 503.1128 2666.4902 520.0029 2665.6025 C 528.3569 2665.1562 535.5801 2664.2227 541.6699 2662.8027 C 547.7573 2661.3818 552.4473 2660.1816 555.7368 2659.2021 L 545.0698 2607.4678 C 543.647 2607.8242 541.4468 2608.2686 538.4697 2608.8018 C 535.4907 2609.335 532.8906 2609.6016 530.6694 2609.6016 C 527.4697 2609.6016 524.8467 2609.1348 522.8027 2608.2012 C 520.7568 2607.2686 519.2466 2605.8477 518.2695 2603.9346 C 517.29 2602.0244 516.8027 2599.6475 516.8027 2596.8018 V 2408.7988 H 443.2017 Z M 552.0034 2457.8662 H 417.0679 V 2511.2002 H 552.0034 V 2457.8662 Z M 396.271 2524.5332 C 395.3813 2502.8457 386.3813 2485.8662 369.2705 2473.5996 C 352.1582 2461.333 328.8032 2455.1992 299.2031 2455.1992 C 279.7358 2455.1992 262.9131 2457.7988 248.7354 2462.999 C 234.5562 2468.1992 223.6685 2475.7559 216.0684 2485.666 C 208.4683 2495.5791 204.7119 2507.6455 204.8018 2521.8672 C 204.7119 2537.957 209.8682 2551.1133 220.2686 2561.334 C 230.6685 2571.5576 246.3125 2578.4902 267.2026 2582.1348 L 303.4697 2588.5342 C 311.4697 2589.957 317.3574 2591.8242 321.1367 2594.1348 C 324.9136 2596.4473 326.8472 2599.5576 326.9365 2603.4678 C 326.8472 2607.7344 324.6035 2611.0244 320.2031 2613.335 C 315.8032 2615.6475 310.2241 2616.8018 303.4697 2616.8018 C 295.1133 2616.8018 288.2026 2615.0479 282.7363 2611.5352 C 277.2695 2608.0244 274.0464 2603.0244 273.0693 2596.5342 H 200.0015 C 202.0454 2617.5137 211.8892 2634.4014 229.5352 2647.2021 C 247.1792 2660.002 271.6465 2666.4023 302.9365 2666.4023 C 321.8701 2666.4023 338.7368 2663.4902 353.5371 2657.6689 S 380.0249 2643.5811 388.6045 2632.8682 C 397.1816 2622.1582 401.5151 2609.5137 401.6045 2594.9346 C 401.5151 2579.8242 396.3379 2567.7568 386.0708 2558.7344 C 375.8042 2549.7129 360.1812 2543.29 339.2036 2539.4668 L 297.603 2532 C 289.7798 2530.5791 284.5132 2528.5791 281.8027 2526 C 279.0903 2523.4229 277.7798 2520.623 277.8691 2517.6006 C 277.7798 2513.333 280.0029 2510.0459 284.5361 2507.7334 C 289.0693 2505.4229 294.4902 2504.2666 300.8032 2504.2666 C 305.6904 2504.2666 310.1572 2505.0898 314.2031 2506.7334 C 318.2471 2508.3789 321.5576 2510.7129 324.1367 2513.7334 C 326.7139 2516.7559 328.1807 2520.3564 328.5366 2524.5332 H 396.271 Z"
	/>
</symbol>
			</defs>
			<rect
				width="4000"
				height="4000"
				fill="white"
			/>
			<use
				href="#logo"
				width="2296"
				height="3056"
				x="852"
				y="472"
			/>
		</svg>
	