
		<svg
			xmlns="http://www.w3.org/2000/svg"
			viewBox="0 0 1280 640"
		>
			<defs>
	<symbol viewBox="0 0 2296 3056" id="logo">
	<path d="M 2296 0 V 3056 H 0 V 0 Z M 2196 100 H 100 V 2956 H 2196 Z" />
	<path
		d="M 2096 1871.9917 L 1872.2028 1477.2798 L 2095.9871 838.65 L 1148.0044 200.0082 L 1147.9996 200 L 1147.9965 200.0055 L 200.0104 838.65 L 423.7955 1477.2825 L 200 1871.9917 H 562.1067 L 562.1096 1872 H 1733.8876 L 1733.8906 1871.9917 H 2096 Z M 1762.8061 1487.0834 L 1662.9706 1771.9909 H 633.0266 L 533.1923 1487.0861 L 1147.9998 402.7473 L 1762.8061 1487.0834 Z"
	/>
	<path
		d="M 1811.7725 2827.25 C 1865.4287 2827.25 1912.335 2819.125 1952.5225 2802.8906 C 1992.6943 2786.6406 2024.9912 2763.7188 2049.4287 2734.125 S 2089.3506 2669.5781 2095.9131 2629.2656 H 1905.4756 C 1901.4443 2640.1094 1895.1475 2649.3594 1886.585 2657.0469 S 1867.7568 2670.5781 1855.7881 2674.6094 S 1830.6631 2680.6563 1816.3037 2680.6563 C 1795.6475 2680.6563 1778.0225 2676.5 1763.4131 2668.1875 C 1748.7881 2659.875 1737.585 2648.4219 1729.7725 2633.7969 C 1721.96 2619.1875 1718.0693 2602.5625 1718.0693 2583.9219 V 2459.9844 C 1718.5693 2443.1094 1723.0537 2428.375 1731.4912 2415.7813 S 1751.1943 2393.3125 1765.3037 2386.125 C 1779.3975 2378.9531 1794.8975 2375.3594 1811.7725 2375.3594 C 1829.1475 2375.3594 1844.71 2378.9531 1858.4443 2386.125 C 1872.1631 2393.3125 1883.1162 2403.25 1891.3037 2415.9688 S 1903.71 2443.3594 1903.9756 2459.9844 H 1577.5225 V 2574.8594 H 2095.9131 V 2526.4844 C 2095.9131 2480.3906 2089.1006 2438.9688 2075.5068 2402.1875 C 2061.8975 2365.4063 2042.5068 2334.1094 2017.3193 2308.2969 S 1961.7725 2262.7656 1926.2568 2249.1563 C 1890.7412 2235.5625 1851.0693 2228.75 1807.2412 2228.75 C 1747.2881 2228.75 1695.2725 2241.2188 1651.1943 2266.1563 C 1607.1006 2291.0938 1572.9756 2325.9844 1548.7881 2370.8281 S 1512.5225 2468.0625 1512.5225 2528 C 1512.5225 2590.4688 1524.5381 2644.0625 1548.6006 2688.7813 S 1607.0381 2767.75 1651.7568 2791.5469 C 1696.4756 2815.3594 1749.8037 2827.25 1811.7725 2827.25 Z M 1149.5059 2673.0938 C 1130.8501 2673.0938 1114.8501 2667.1875 1101.5063 2655.3438 S 1077.9595 2626.625 1070.9126 2604.7031 C 1063.8501 2582.7969 1060.3345 2556.7188 1060.3345 2526.4844 C 1060.3345 2496.0156 1063.8501 2469.875 1070.9126 2448.0938 C 1077.9595 2426.3125 1088.1626 2409.5 1101.5063 2397.6563 S 1130.8501 2379.8906 1149.5059 2379.8906 C 1167.1309 2379.8906 1182.3652 2385.8125 1195.209 2397.6563 S 1218.0059 2426.3125 1225.0684 2448.0938 C 1232.1152 2469.875 1235.6465 2496.0156 1235.6465 2526.4844 C 1235.6465 2556.7188 1232.1152 2582.7969 1225.0684 2604.7031 C 1218.0059 2626.625 1208.0527 2643.5 1195.209 2655.3438 S 1167.1309 2673.0938 1149.5059 2673.0938 Z M 1147.9907 2827.25 C 1210.959 2827.25 1264.8496 2814.7188 1309.6934 2789.6563 S 1388.9121 2729.5938 1412.8496 2684.625 S 1448.7559 2587.4531 1448.7559 2528 C 1448.7559 2468.5625 1436.7871 2416.3594 1412.8496 2371.3906 S 1354.5371 2291.4063 1309.6934 2266.3438 S 1210.959 2228.75 1147.9907 2228.75 C 1085.022 2228.75 1031.1157 2241.2813 986.272 2266.3438 S 907.0532 2326.4219 883.1157 2371.3906 S 847.2251 2468.5625 847.2251 2528 C 847.2251 2587.4531 859.1782 2639.6563 883.1157 2684.625 S 941.4282 2764.5938 986.272 2789.6563 S 1085.022 2827.25 1147.9907 2827.25 Z M 499.3364 2827.25 C 552.9927 2827.25 599.8989 2819.125 640.0864 2802.8906 C 680.2583 2786.6406 712.5552 2763.7188 736.9927 2734.125 S 776.9146 2669.5781 783.4771 2629.2656 H 593.0396 C 589.0083 2640.1094 582.7114 2649.3594 574.1489 2657.0469 S 555.3208 2670.5781 543.3521 2674.6094 S 518.2271 2680.6563 503.8677 2680.6563 C 483.2114 2680.6563 465.5864 2676.5 450.9771 2668.1875 C 436.3521 2659.875 425.1489 2648.4219 417.3364 2633.7969 C 409.5239 2619.1875 405.6333 2602.5625 405.6333 2583.9219 V 2459.9844 C 406.1333 2443.1094 410.6177 2428.375 419.0552 2415.7813 S 438.7583 2393.3125 452.8677 2386.125 C 466.9614 2378.9531 482.4614 2375.3594 499.3364 2375.3594 C 516.7114 2375.3594 532.2739 2378.9531 546.0083 2386.125 C 559.7271 2393.3125 570.6802 2403.25 578.8677 2415.9688 S 591.2739 2443.3594 591.5396 2459.9844 H 265.0864 V 2574.8594 H 783.4771 V 2526.4844 C 783.4771 2480.3906 776.6646 2438.9688 763.0708 2402.1875 C 749.4614 2365.4063 730.0708 2334.1094 704.8833 2308.2969 S 649.3364 2262.7656 613.8208 2249.1563 C 578.3052 2235.5625 538.6333 2228.75 494.8052 2228.75 C 434.8521 2228.75 382.8364 2241.2188 338.7583 2266.1563 C 294.6646 2291.0938 260.5396 2325.9844 236.3521 2370.8281 S 200.0864 2468.0625 200.0864 2528 C 200.0864 2590.4688 212.1021 2644.0625 236.1646 2688.7813 S 294.6021 2767.75 339.3208 2791.5469 C 384.0396 2815.3594 437.3677 2827.25 499.3364 2827.25 Z"
	/>
</symbol>
			</defs>
			<rect
				width="100%"
				height="100%"
				fill="white"
			/>
	
			<use
				href="#logo"
				height="50%"
				y="25%"
			/>
		</svg>
	