<svg
	xmlns="http://www.w3.org/2000/svg"
	viewBox="0 0 2296 3056"
>
	<path d="M 2296 0 V 3056 H 0 V 0 Z M 2196 100 H 100 V 2956 H 2196 Z" />
	<path
		d="M 760.3964 749 H 1708.3965 L 1735.191 649 H 787.1914 L 760.3964 749 Z M 706.8066 949 H 1130.8063 L 1003.7985 1422.9999 H 1103.7982 L 1230.8063 949 H 1654.8064 L 1681.601 849 H 733.6013 L 706.8066 949 Z M 1148 200 C 624.4333 200 200 574.2889 200 1036 S 624.4333 1872 1148 1872 S 2096 1497.7111 2096 1036 S 1671.5667 200 1148 200 Z M 1601.0088 1523 H 512.5149 C 496.2971 1507.0688 480.8558 1490.5275 466.2815 1473.4647 L 713.9913 549 H 1783.4851 C 1805.137 570.2692 1825.4073 592.6256 1844.0774 615.8552 L 1601.0088 1523 Z M 300 1036 C 300 938.2306 321.7556 843.2972 364.6639 753.8361 C 385.45 710.5 411.2278 668.6333 441.2861 629.3972 C 462.8155 601.2947 486.6842 574.3741 512.5149 549 H 613.9913 L 393.4832 1371.9479 C 383.0334 1354.3356 373.4021 1336.3818 364.6639 1318.1639 C 321.7556 1228.7028 300 1133.7694 300 1036 Z M 1854.7139 1442.6028 C 1833.1846 1470.7054 1809.3158 1497.6259 1783.4851 1523 H 1701.0085 L 1915.4319 722.762 C 1921.0146 733.0247 1926.324 743.3864 1931.3361 753.8361 C 1974.2444 843.2972 1996 938.2306 1996 1036 S 1974.2444 1228.7028 1931.3361 1318.1639 C 1910.55 1361.5 1884.7722 1403.3666 1854.7139 1442.6028 Z"
	/>
	<path
		d="M 200 2624.0557 V 2322.9502 H 305.0742 V 2380.1914 H 308.21 C 313.6992 2359.0195 322.4229 2343.5332 334.3809 2333.7314 C 346.3389 2323.9307 360.3545 2319.0293 376.4297 2319.0293 C 381.1338 2319.0293 385.8057 2319.3906 390.4463 2320.1074 C 395.083 2320.8271 399.5615 2321.8408 403.874 2323.1465 V 2415.4775 C 398.5137 2413.6484 391.916 2412.2764 384.0752 2411.3604 C 376.2334 2410.4482 369.501 2409.9883 363.8838 2409.9883 C 353.2979 2409.9883 343.79 2412.374 335.3604 2417.1436 C 326.9316 2421.916 320.2969 2428.5811 315.4639 2437.1387 C 310.627 2445.7002 308.21 2455.7314 308.21 2467.2295 V 2624.0557 H 200 Z M 566.1826 2629.5449 C 534.0332 2629.5449 506.3594 2623.3691 483.1631 2611.0195 C 459.9639 2598.6699 442.125 2580.8975 429.6465 2557.6982 C 417.1641 2534.5029 410.9248 2506.6992 410.9248 2474.2871 C 410.9248 2443.1855 417.1982 2416.001 429.7441 2392.7373 C 442.29 2369.4775 459.9971 2351.375 482.8691 2338.4365 C 505.7373 2325.498 532.7256 2319.0293 563.8301 2319.0293 C 586.5703 2319.0293 607.1533 2322.5576 625.5801 2329.6152 C 644.0078 2336.6719 659.7539 2346.8994 672.8242 2360.2939 C 685.8906 2373.6914 695.9561 2389.9287 703.0127 2409.0078 C 710.0703 2428.0908 713.5986 2449.5869 713.5986 2473.5029 V 2498.5947 H 444.6426 V 2439.001 H 614.0146 C 613.8828 2430.376 611.6924 2422.7646 607.4473 2416.1631 C 603.1992 2409.5654 597.5137 2404.4014 590.3926 2400.6768 C 583.2676 2396.9521 575.2002 2395.0898 566.1826 2395.0898 C 557.4258 2395.0898 549.3877 2396.9521 542.0703 2400.6768 C 534.75 2404.4014 528.9023 2409.5322 524.5254 2416.0654 C 520.1455 2422.6016 517.8271 2430.2471 517.5664 2439.001 V 2503.2998 C 517.5664 2512.9727 519.5908 2521.5986 523.6436 2529.1758 C 527.6924 2536.7568 533.5098 2542.7021 541.0908 2547.0146 C 548.668 2551.3281 557.8174 2553.4844 568.5352 2553.4844 C 575.9844 2553.4844 582.8115 2552.4395 589.0205 2550.3477 C 595.2256 2548.2588 600.5527 2545.2197 604.9971 2541.2324 C 609.4385 2537.2471 612.7061 2532.4443 614.7988 2526.8232 H 713.5986 C 710.1992 2547.7344 702.1611 2565.8682 689.4873 2581.2227 C 676.8086 2596.5801 660.0479 2608.4707 639.2041 2616.9004 C 618.3574 2625.3301 594.0195 2629.5449 566.1826 2629.5449 Z M 757.502 2736.9707 V 2322.9502 H 864.9277 V 2375.4863 H 867.2803 C 871.2012 2365.293 876.9502 2355.917 884.5313 2347.3564 C 892.1094 2338.7979 901.5186 2331.9365 912.7598 2326.7725 C 923.998 2321.6113 937.0684 2319.0293 951.9668 2319.0293 C 971.8301 2319.0293 990.7471 2324.3223 1008.7178 2334.9082 C 1026.6855 2345.4941 1041.3232 2362.1562 1052.6289 2384.8965 C 1063.9316 2407.6357 1069.5859 2437.1729 1069.5859 2473.5029 C 1069.5859 2508.2676 1064.1953 2537.085 1053.4131 2559.9531 C 1042.6318 2582.8242 1028.2539 2599.8789 1010.2861 2611.1172 C 992.3154 2622.3584 972.6143 2627.9766 951.1826 2627.9766 C 937.0684 2627.9766 924.4883 2625.6543 913.4463 2621.0176 C 902.4004 2616.3799 892.9912 2610.0391 885.2178 2602.002 C 877.4404 2593.9648 871.4619 2584.8496 867.2803 2574.6553 H 865.7119 V 2736.9707 H 757.502 Z M 863.3594 2473.5029 C 863.3594 2488.1406 865.2861 2500.7852 869.1426 2511.4355 C 872.9961 2522.0879 878.4854 2530.3213 885.6094 2536.1348 C 892.7314 2541.9521 901.2588 2544.8584 911.1914 2544.8584 C 921.1221 2544.8584 929.585 2542.0166 936.5781 2536.3311 C 943.5674 2530.6465 948.9277 2522.4805 952.6523 2511.8271 C 956.377 2501.1768 958.2393 2488.4014 958.2393 2473.5029 S 956.377 2445.832 952.6523 2435.1787 C 948.9277 2424.5283 943.5674 2416.3594 936.5781 2410.6748 C 929.585 2404.9893 921.1221 2402.1475 911.1914 2402.1475 C 901.2588 2402.1475 892.7314 2404.9893 885.6094 2410.6748 C 878.4854 2416.3594 872.9961 2424.5283 869.1426 2435.1787 C 865.2861 2445.832 863.3594 2458.6045 863.3594 2473.5029 Z M 1260.126 2629.5449 C 1227.4521 2629.5449 1199.4844 2623.0449 1176.2236 2610.0391 C 1152.96 2597.0371 1135.1211 2578.8701 1122.707 2555.542 C 1110.2891 2532.2148 1104.084 2505.1318 1104.084 2474.2871 C 1104.084 2443.4453 1110.2891 2416.3594 1122.707 2393.0312 C 1135.1211 2369.7041 1152.96 2351.54 1176.2236 2338.5342 C 1199.4844 2325.5322 1227.4521 2319.0293 1260.126 2319.0293 C 1292.7959 2319.0293 1320.7637 2325.5322 1344.0273 2338.5342 C 1367.2881 2351.54 1385.127 2369.7041 1397.5439 2393.0312 C 1409.959 2416.3594 1416.167 2443.4453 1416.167 2474.2871 C 1416.167 2505.1318 1409.959 2532.2148 1397.5439 2555.542 C 1385.127 2578.8701 1367.2881 2597.0371 1344.0273 2610.0391 C 1320.7637 2623.0449 1292.7959 2629.5449 1260.126 2629.5449 Z M 1260.9102 2549.5635 C 1270.0557 2549.5635 1277.9648 2546.4941 1284.6299 2540.3496 C 1291.2949 2534.209 1296.4561 2525.4512 1300.1162 2514.0811 C 1303.7734 2502.7119 1305.6055 2489.1855 1305.6055 2473.5029 C 1305.6055 2457.6914 1303.7734 2444.1318 1300.1162 2432.8262 C 1296.4561 2421.5234 1291.2949 2412.7998 1284.6299 2406.6562 C 1277.9648 2400.5146 1270.0557 2397.4424 1260.9102 2397.4424 C 1251.2363 2397.4424 1242.9395 2400.5146 1236.0137 2406.6562 C 1229.085 2412.7998 1223.792 2421.5234 1220.1348 2432.8262 C 1216.4746 2444.1318 1214.6465 2457.6914 1214.6465 2473.5029 C 1214.6465 2489.1855 1216.4746 2502.7119 1220.1348 2514.0811 C 1223.792 2525.4512 1229.085 2534.209 1236.0137 2540.3496 C 1242.9395 2546.4941 1251.2363 2549.5635 1260.9102 2549.5635 Z M 1605.1426 2629.5449 C 1572.4688 2629.5449 1544.501 2623.0449 1521.2402 2610.0391 C 1497.9766 2597.0371 1480.1377 2578.8701 1467.7236 2555.542 C 1455.3057 2532.2148 1449.1006 2505.1318 1449.1006 2474.2871 C 1449.1006 2443.4453 1455.3057 2416.3594 1467.7236 2393.0312 C 1480.1377 2369.7041 1497.9766 2351.54 1521.2402 2338.5342 C 1544.501 2325.5322 1572.4687 2319.0293 1605.1426 2319.0293 C 1634.6758 2319.0293 1660.2578 2324.3564 1681.8887 2335.0059 C 1703.5166 2345.6592 1720.2773 2360.6865 1732.1709 2380.0937 C 1744.0615 2399.501 1750.0742 2422.2744 1750.2061 2448.4111 H 1649.8379 C 1648.3984 2432.5996 1643.8584 2420.5439 1636.2129 2412.2432 C 1628.5684 2403.9453 1618.7324 2399.7949 1606.7109 2399.7949 C 1597.3008 2399.7949 1589.0674 2402.5088 1582.0107 2407.9297 C 1574.9531 2413.3545 1569.4639 2421.5234 1565.5439 2432.4346 C 1561.623 2443.3477 1559.6631 2457.0361 1559.6631 2473.5029 S 1561.623 2503.6611 1565.5439 2514.5713 C 1569.4639 2525.4854 1574.9531 2533.6543 1582.0107 2539.0752 C 1589.0674 2544.5 1597.3008 2547.2109 1606.7109 2547.2109 C 1614.6807 2547.2109 1621.7373 2545.3486 1627.8818 2541.624 C 1634.0234 2537.8994 1639.0225 2532.4102 1642.8789 2525.1572 C 1646.7314 2517.9043 1649.0537 2509.0518 1649.8379 2498.5947 H 1750.2061 C 1749.8145 2525.127 1743.7373 2548.2246 1731.9756 2567.8926 C 1720.2129 2587.5635 1703.5811 2602.7559 1682.085 2613.4697 C 1660.5859 2624.1846 1634.9395 2629.5449 1605.1426 2629.5449 Z M 1939.959 2629.5449 C 1907.2852 2629.5449 1879.3174 2623.0449 1856.0566 2610.0391 C 1832.793 2597.0371 1814.9541 2578.8701 1802.54 2555.542 C 1790.1221 2532.2148 1783.917 2505.1318 1783.917 2474.2871 C 1783.917 2443.4453 1790.1221 2416.3594 1802.54 2393.0312 C 1814.9541 2369.7041 1832.793 2351.54 1856.0566 2338.5342 C 1879.3174 2325.5322 1907.2852 2319.0293 1939.959 2319.0293 C 1972.6289 2319.0293 2000.5967 2325.5322 2023.8604 2338.5342 C 2047.1211 2351.54 2064.96 2369.7041 2077.377 2393.0312 C 2089.792 2416.3594 2096 2443.4453 2096 2474.2871 C 2096 2505.1318 2089.792 2532.2148 2077.377 2555.542 C 2064.96 2578.8701 2047.1211 2597.0371 2023.8604 2610.0391 C 2000.5967 2623.0449 1972.6289 2629.5449 1939.959 2629.5449 Z M 1940.7432 2549.5635 C 1949.8887 2549.5635 1957.7979 2546.4941 1964.4629 2540.3496 C 1971.1279 2534.209 1976.2891 2525.4512 1979.9492 2514.0811 C 1983.6064 2502.7119 1985.4385 2489.1855 1985.4385 2473.5029 C 1985.4385 2457.6914 1983.6064 2444.1318 1979.9492 2432.8262 C 1976.2891 2421.5234 1971.1279 2412.7998 1964.4629 2406.6562 C 1957.7979 2400.5146 1949.8887 2397.4424 1940.7432 2397.4424 C 1931.0693 2397.4424 1922.7725 2400.5146 1915.8467 2406.6562 C 1908.918 2412.7998 1903.625 2421.5234 1899.9678 2432.8262 C 1896.3076 2444.1318 1894.4795 2457.6914 1894.4795 2473.5029 C 1894.4795 2489.1855 1896.3076 2502.7119 1899.9678 2514.0811 C 1903.625 2525.4512 1908.918 2534.209 1915.8467 2540.3496 C 1922.7725 2546.4941 1931.0693 2549.5635 1940.7432 2549.5635 Z"
	/>
</svg>