
		<svg
			xmlns="http://www.w3.org/2000/svg"
			viewBox="0 0 1280 640"
		>
			<defs>
	<symbol viewBox="0 0 2296 3056" id="logo">
	<path d="M 2296 0 V 3056 H 0 V 0 Z M 2196 100 H 100 V 2956 H 2196 Z" />
	<path
		d="M 2096 1872 H 200 C 241.8856 1516.6957 520.5835 1232.7439 873.6769 1182.8375 L 873.6774 1182.2111 C 943.2203 1476.9844 1207.9207 1696.5762 1523.9952 1696.5761 C 1766.5553 1696.576 1978.9281 1567.3159 2096 1373.9259 V 1872 Z M 2096 1182.2111 H 200 C 241.8856 900.1645 520.5835 674.7587 873.6769 635.1422 L 873.6774 634.645 C 943.2203 868.641 1207.9207 1042.9567 1523.9952 1042.9566 C 1766.5553 1042.9565 1978.9281 940.3477 2096 786.8314 V 1182.2111 Z M 2096 634.645 H 200 C 241.8856 410.7515 520.5835 231.8206 873.6769 200.3723 L 873.6774 199.9776 C 943.2203 385.7277 1207.9207 524.1024 1523.9952 524.1024 C 1766.5553 524.1023 1978.9281 442.6496 2096 320.7858 V 634.645 Z"
	/>
	<path
		d="M 1728.7754 2856 C 1776.8066 2856 1818.1475 2847.3594 1852.8027 2830.0889 C 1887.4531 2812.8184 1914.2627 2788.3281 1933.2227 2756.6211 C 1952.1816 2724.918 1961.9775 2687.6855 1962.6094 2644.918 H 1800.8223 C 1799.5576 2661.7734 1795.8154 2676.043 1789.6045 2687.7344 C 1783.3877 2699.4258 1775.3301 2708.2744 1765.4307 2714.2783 C 1755.5264 2720.2813 1744.1504 2723.2832 1731.3037 2723.2832 C 1716.1357 2723.2832 1702.8643 2718.9141 1691.4893 2710.1699 C 1680.1133 2701.4307 1671.2656 2688.2627 1664.9453 2670.6709 C 1658.626 2653.084 1655.4658 2631.0137 1655.4658 2604.4707 S 1658.626 2555.8623 1664.9453 2538.2705 C 1671.2656 2520.6836 1680.1133 2507.5156 1691.4893 2498.7715 C 1702.8643 2490.0322 1716.1357 2485.6582 1731.3037 2485.6582 C 1750.6826 2485.6582 1766.5371 2492.3477 1778.8604 2505.7236 C 1791.1846 2519.1035 1798.501 2538.5371 1800.8223 2564.0234 H 1962.6094 C 1962.3975 2521.8936 1952.7051 2485.1836 1933.5381 2453.9004 C 1914.3662 2422.6172 1887.3496 2398.3945 1852.4863 2381.2227 C 1817.6191 2364.0557 1776.3818 2355.4697 1728.7754 2355.4697 C 1676.1084 2355.4697 1631.0254 2365.9512 1593.5313 2386.9102 C 1556.0322 2407.875 1527.2764 2437.1533 1507.2656 2474.7559 C 1487.25 2512.3594 1477.2461 2556.0205 1477.2461 2605.7344 C 1477.2461 2655.4541 1487.25 2699.1104 1507.2656 2736.7129 C 1527.2764 2774.3164 1556.0322 2803.5996 1593.5313 2824.5586 C 1631.0254 2845.5234 1676.1084 2856 1728.7754 2856 Z M 1137.2485 2847.1523 H 1311.6758 V 2594.3594 C 1311.6758 2575.8242 1315.5723 2559.6543 1323.3672 2545.8545 C 1331.1582 2532.0596 1341.8535 2521.3154 1355.4404 2513.623 C 1369.0283 2505.9355 1384.3545 2502.0898 1401.418 2502.0898 C 1410.4727 2502.0898 1421.3252 2502.8301 1433.9648 2504.3018 C 1446.6045 2505.7773 1457.2393 2507.9893 1465.8799 2510.9375 V 2362.1055 C 1458.9277 2360.002 1451.71 2358.3672 1444.2344 2357.207 C 1436.7539 2356.0518 1429.2246 2355.4697 1421.6406 2355.4697 C 1395.7295 2355.4697 1373.1367 2363.3691 1353.8613 2379.1689 S 1320.5234 2419.9316 1311.6758 2454.0586 H 1306.6201 V 2361.7891 H 1137.2485 V 2847.1523 Z M 828.853 2856 C 873.7241 2856 912.9565 2849.2061 946.5601 2835.6182 C 980.1587 2822.0313 1007.1763 2802.8643 1027.6118 2778.1084 C 1048.0425 2753.3574 1060.9985 2724.1279 1066.479 2690.4209 H 907.2192 C 903.8467 2699.4805 898.5786 2707.2227 891.4194 2713.6455 C 884.2554 2720.0742 875.6694 2724.9727 865.666 2728.3398 C 855.6582 2731.7119 844.6528 2733.3955 832.645 2733.3955 C 815.3691 2733.3955 800.6211 2729.9199 788.4063 2722.9678 C 776.186 2716.0156 766.8101 2706.4326 760.2827 2694.2119 C 753.751 2681.9971 750.4873 2668.0938 750.4873 2652.502 V 2548.8564 C 750.9067 2534.7451 754.6445 2522.4219 761.7051 2511.8848 C 768.7603 2501.3535 778.186 2493.084 789.9863 2487.0801 C 801.7817 2481.0762 814.7373 2478.0742 828.853 2478.0742 C 843.3887 2478.0742 856.394 2481.0762 867.8779 2487.0801 C 879.3574 2493.084 888.521 2501.4082 895.3696 2512.043 C 902.2124 2522.6836 905.7427 2534.9521 905.9551 2548.8564 H 632.9385 V 2644.918 H 1066.479 V 2604.4707 C 1066.479 2565.9199 1060.791 2531.2695 1049.4155 2500.5098 C 1038.0396 2469.7549 1021.8154 2443.582 1000.7524 2421.9854 C 979.6851 2400.3945 954.3018 2383.9082 924.5986 2372.5332 C 894.8955 2361.1572 861.7163 2355.4697 825.061 2355.4697 C 774.9224 2355.4697 731.4189 2365.8975 694.5566 2386.7529 C 657.6895 2407.6084 629.1465 2436.7881 608.9229 2474.2822 C 588.6997 2511.7813 578.5879 2555.6006 578.5879 2605.7344 C 578.5879 2657.9824 588.645 2702.7988 608.7651 2740.1895 C 628.8799 2777.585 657.6353 2806.2314 695.0308 2826.1387 C 732.4214 2846.0459 777.0303 2856 828.853 2856 Z M 507.8179 2200.001 H 333.3906 V 2847.1523 H 507.8179 V 2200.001 Z"
	/>
</symbol>
			</defs>
			<rect
				width="100%"
				height="100%"
				fill="white"
			/>
	
			<use
				href="#logo"
				height="50%"
				y="25%"
			/>
		</svg>
	