<svg
	xmlns="http://www.w3.org/2000/svg"
	viewBox="0 0 2296 3056"
>
	<path d="M 2296 0 V 3056 H 0 V 0 Z M 2196 100 H 100 V 2956 H 2196 Z" />

	<path
		d="M 200 1036 L 446.48 893 L 200 750 L 1148 200 L 2096 750 L 1849.52 893 L 2096 1036 L 1849.52 1179 L 2096 1322 L 1148 1872 L 200 1322 L 446.4799 1179 Z M 940.9895 1064.2869 L 1063.0577 1135.107 L 1378.7386 1050.5206 L 1710.3261 858.1439 L 940.9895 1064.2869 Z M 399.2731 1036 L 1148 1470.388 L 1896.7269 1036 L 1749.8835 950.806 L 1148 1300 L 546.1165 950.806 Z M 585.673 641.8566 L 1355.0107 435.7132 L 1232.9423 364.8929 L 917.2615 449.4793 L 585.673 641.8566 Z M 452.7197 781.008 L 574.7881 851.8283 L 1599.1456 577.3526 L 1477.0771 506.5323 L 452.7197 781.008 Z M 696.8545 922.6474 L 818.9228 993.4677 L 1843.2804 718.992 L 1721.212 648.1717 L 696.8545 922.6474 Z"
	/>

	<path
		d="M 350.3721 2567.7725 V 2803.1377 H 200 V 2245.2354 H 344.9238 V 2464.2559 H 349.2832 C 358.7236 2437.5596 374.4346 2416.7197 396.4102 2401.7363 C 418.3818 2386.7539 444.8066 2379.2627 475.6826 2379.2627 C 505.2822 2379.2627 531.0254 2385.9834 552.9121 2399.4209 C 574.7939 2412.8633 591.7734 2431.3877 603.8535 2454.9932 C 615.9287 2478.6045 621.875 2505.6621 621.6963 2536.1729 V 2803.1377 H 471.3242 V 2567.7725 C 471.5029 2547.0693 466.374 2530.8184 455.9326 2519.0107 C 445.4873 2507.207 430.6406 2501.3037 411.3936 2501.3037 C 399.2236 2501.3037 388.5527 2503.9854 379.3848 2509.3398 C 370.2119 2514.6992 363.1289 2522.3262 358.1367 2532.2227 C 353.1396 2542.123 350.5518 2553.9736 350.3721 2567.7725 Z M 897.374 2810.7656 C 851.9707 2810.7656 813.1045 2801.7334 780.7813 2783.6602 C 748.4541 2765.5918 723.6641 2740.3467 706.4131 2707.9297 C 689.1572 2675.5117 680.5332 2637.877 680.5332 2595.0137 C 680.5332 2552.1553 689.1572 2514.5156 706.4131 2482.0986 C 723.6641 2449.6816 748.4541 2424.4404 780.7813 2406.3682 C 813.1045 2388.2988 851.9707 2379.2627 897.374 2379.2627 C 942.7734 2379.2627 981.6396 2388.2988 1013.9668 2406.3682 C 1046.291 2424.4404 1071.0801 2449.6816 1088.3359 2482.0986 C 1105.5879 2514.5156 1114.2148 2552.1553 1114.2148 2595.0137 C 1114.2148 2637.877 1105.5879 2675.5117 1088.3359 2707.9297 C 1071.0801 2740.3467 1046.291 2765.5918 1013.9668 2783.6602 C 981.6396 2801.7334 942.7734 2810.7656 897.374 2810.7656 Z M 898.4639 2699.6211 C 911.1738 2699.6211 922.1641 2695.3555 931.4258 2686.8174 C 940.6885 2678.2832 947.8604 2666.1143 952.9463 2650.3135 C 958.0293 2634.5137 960.5742 2615.7178 960.5742 2593.9238 C 960.5742 2571.9521 958.0293 2553.1094 952.9463 2537.3984 C 947.8604 2521.6924 940.6885 2509.5693 931.4258 2501.0313 C 922.1641 2492.4971 911.1738 2488.2275 898.4639 2488.2275 C 885.0225 2488.2275 873.4912 2492.4971 863.8672 2501.0313 C 854.2393 2509.5693 846.8838 2521.6924 841.8018 2537.3984 C 836.7158 2553.1094 834.1748 2571.9521 834.1748 2593.9238 C 834.1748 2615.7178 836.7158 2634.5137 841.8018 2650.3135 C 846.8838 2666.1143 854.2393 2678.2832 863.8672 2686.8174 C 873.4912 2695.3555 885.0225 2699.6211 898.4639 2699.6211 Z M 1241.7129 2803.1377 L 1137.1055 2384.7109 H 1287.4785 L 1335.4219 2639.6895 H 1338.6914 L 1392.084 2384.7109 H 1538.0977 L 1593.6699 2637.5107 H 1596.9395 L 1642.7051 2384.7109 H 1793.0762 L 1688.4707 2803.1377 H 1526.1113 L 1467.2715 2578.6689 H 1462.9121 L 1404.0703 2803.1377 H 1241.7129 Z M 2088.3721 2384.7109 V 2493.6758 H 1812.6904 V 2384.7109 H 2088.3721 Z M 1866.083 2284.4629 H 2016.4551 V 2668.5654 C 2016.4551 2674.3799 2017.4512 2679.2363 2019.4521 2683.1396 C 2021.4482 2687.0469 2024.5342 2689.9502 2028.7139 2691.8564 C 2032.8896 2693.7637 2038.248 2694.7168 2044.7861 2694.7168 C 2049.3242 2694.7168 2054.6357 2694.1729 2060.7227 2693.083 C 2066.8047 2691.9932 2071.2998 2691.0869 2074.207 2690.3584 L 2096 2796.0547 C 2089.2793 2798.0557 2079.6982 2800.5068 2067.2607 2803.4102 C 2054.8193 2806.3135 2040.0615 2808.2197 2022.9932 2809.1309 C 1988.4863 2810.9443 1959.5215 2807.3604 1936.0938 2798.3701 C 1912.666 2789.3809 1895.0488 2775.1729 1883.2451 2755.7373 C 1871.4375 2736.3066 1865.7168 2711.9727 1866.083 2682.7314 V 2284.4629 Z"
	/>

</svg>