
		<svg
			xmlns="http://www.w3.org/2000/svg"
			viewBox="0 0 1280 640"
		>
			<defs>
	<symbol viewBox="0 0 2296 3056" id="logo">
	<path d="M 2296 0 V 3056 H 0 V 0 Z M 2196 100 H 100 V 2956 H 2196 Z" />
	<g
		fill="none"
		stroke="black"
		stroke-miterlimit="100"
		stroke-width="100"
	>
		<ellipse
			cx="1148"
			cy="1036"
			rx="898"
			ry="786"
		/>
		<ellipse
			cx="1148"
			cy="1036"
			rx="424"
			ry="786"
		/>
		<path d="M 1148 1822 V 250 M 2046 1036 H 250" />
	</g>
	<path
		d="M 265.1465 2712.2412 L 200 2451.6572 H 293.6475 L 323.5059 2610.4502 H 325.542 L 358.7939 2451.6572 H 449.7266 L 484.335 2609.0937 H 486.3711 L 514.8721 2451.6572 H 608.5195 L 543.374 2712.2412 H 442.2617 L 405.6172 2572.4492 H 402.9033 L 366.2588 2712.2412 H 265.1465 Z M 757.1387 2716.9912 C 729.3164 2716.9912 705.3662 2711.6475 685.292 2700.959 C 665.2148 2690.2715 649.7764 2674.8916 638.9766 2654.8145 C 628.1748 2634.7402 622.7754 2610.6787 622.7754 2582.6279 C 622.7754 2555.7119 628.2041 2532.1855 639.0615 2512.0527 C 649.9199 2491.9229 665.2441 2476.2568 685.0371 2465.0596 C 704.8281 2453.8633 728.1846 2448.2646 755.1025 2448.2646 C 774.7822 2448.2646 792.5957 2451.3184 808.543 2457.4258 S 838.1182 2472.3838 849.4287 2483.9756 C 860.7373 2495.5703 869.4473 2509.6221 875.5547 2526.1338 C 881.6621 2542.6484 884.7158 2561.252 884.7158 2581.9492 V 2603.665 H 651.9551 V 2552.0908 H 798.5332 C 798.4199 2544.626 796.5244 2538.0391 792.8506 2532.3262 C 789.1738 2526.6162 784.2539 2522.1475 778.0908 2518.9238 C 771.9248 2515.7002 764.9424 2514.0889 757.1387 2514.0889 C 749.5605 2514.0889 742.6045 2515.7002 736.2715 2518.9238 C 729.9365 2522.1475 724.876 2526.5879 721.0879 2532.2412 C 717.2979 2537.8984 715.291 2544.5146 715.0654 2552.0908 V 2607.7363 C 715.0654 2616.1074 716.8174 2623.5723 720.3242 2630.1299 C 723.8291 2636.6904 728.8633 2641.8359 735.4238 2645.5684 C 741.9814 2649.3008 749.8994 2651.167 759.1748 2651.167 C 765.6211 2651.167 771.5303 2650.2627 776.9033 2648.4521 C 782.2734 2646.6445 786.8838 2644.0146 790.7295 2640.5635 C 794.5732 2637.1152 797.4014 2632.959 799.2119 2628.0947 H 884.7158 C 881.7734 2646.1914 874.8184 2661.8838 863.8496 2675.1729 C 852.8779 2688.4639 838.3721 2698.7539 820.334 2706.0488 C 802.292 2713.3437 781.2295 2716.9912 757.1387 2716.9912 Z M 921.3545 2712.2412 V 2364.7959 H 1015.001 V 2497.124 H 1016.3584 C 1019.752 2488.3018 1024.7275 2480.1875 1031.2881 2472.7793 C 1037.8457 2465.373 1045.9893 2459.4346 1055.7178 2454.9658 C 1065.4434 2450.499 1076.7539 2448.2646 1089.6475 2448.2646 C 1106.8379 2448.2646 1123.21 2452.8447 1138.7617 2462.0059 C 1154.3125 2471.167 1166.9805 2485.5879 1176.7637 2505.2676 C 1186.5449 2524.9463 1191.4395 2550.5078 1191.4395 2581.9492 C 1191.4395 2612.0361 1186.7734 2636.9746 1177.4434 2656.7656 C 1168.1113 2676.5586 1155.668 2691.3184 1140.1191 2701.0439 C 1124.5664 2710.7725 1107.5166 2715.6338 1088.9687 2715.6338 C 1076.7539 2715.6338 1065.8672 2713.625 1056.3115 2709.6113 C 1046.7529 2705.5986 1038.6094 2700.1113 1031.8818 2693.1553 C 1025.1514 2686.2002 1019.9766 2678.3115 1016.3584 2669.4893 H 1014.3232 V 2712.2412 H 921.3545 Z M 1012.9658 2581.9492 C 1012.9658 2594.6172 1014.6328 2605.5596 1017.9707 2614.7764 C 1021.3047 2623.9961 1026.0557 2631.1221 1032.2207 2636.1523 C 1038.3838 2641.1865 1045.7637 2643.7021 1054.3604 2643.7021 C 1062.9541 2643.7021 1070.2783 2641.2422 1076.3301 2636.3223 C 1082.3789 2631.4023 1087.0186 2624.3359 1090.2412 2615.1162 C 1093.4648 2605.8994 1095.0762 2594.8428 1095.0762 2581.9492 S 1093.4648 2558.002 1090.2412 2548.7822 C 1087.0186 2539.5654 1082.3789 2532.4961 1076.3301 2527.5762 C 1070.2783 2522.6563 1062.9541 2520.1963 1054.3604 2520.1963 C 1045.7637 2520.1963 1038.3838 2522.6563 1032.2207 2527.5762 C 1026.0557 2532.4961 1021.3047 2539.5654 1017.9707 2548.7822 C 1014.6328 2558.002 1012.9658 2569.0557 1012.9658 2581.9492 Z M 1468.9854 2536.4824 H 1382.8027 C 1382.3486 2531.168 1380.4824 2526.5879 1377.2041 2522.7412 C 1373.9219 2518.8975 1369.71 2515.9287 1364.5645 2513.835 C 1359.417 2511.7432 1353.7334 2510.6963 1347.5146 2510.6963 C 1339.4834 2510.6963 1332.5859 2512.167 1326.8174 2515.1064 C 1321.0498 2518.0488 1318.2207 2522.2324 1318.335 2527.6611 C 1318.2207 2531.5078 1319.8887 2535.0703 1323.3398 2538.3486 C 1326.7881 2541.6309 1333.4893 2544.1758 1343.4434 2545.9834 L 1396.374 2555.4834 C 1423.0654 2560.3477 1442.9434 2568.5205 1456.0068 2579.998 C 1469.0693 2591.4785 1475.6572 2606.832 1475.7705 2626.0586 C 1475.6572 2644.6084 1470.1436 2660.6963 1459.2295 2674.3242 C 1448.3145 2687.9551 1433.4434 2698.4727 1414.6113 2705.8789 C 1395.7803 2713.2852 1374.3193 2716.9912 1350.2295 2716.9912 C 1310.417 2716.9912 1279.2861 2708.8486 1256.8369 2692.5615 C 1234.3838 2676.2754 1221.8594 2654.7881 1219.2588 2628.0947 H 1312.2275 C 1313.4707 2636.3516 1317.5713 2642.7139 1324.5273 2647.1797 C 1331.4824 2651.6494 1340.2754 2653.8809 1350.9082 2653.8809 C 1359.502 2653.8809 1366.6006 2652.4131 1372.1992 2649.4707 C 1377.7979 2646.5303 1380.6523 2642.3447 1380.7666 2636.916 C 1380.6523 2631.9404 1378.1924 2627.9834 1373.3867 2625.041 C 1368.5781 2622.1006 1361.0869 2619.7256 1350.9082 2617.915 L 1304.7627 2609.7725 C 1278.1836 2605.1357 1258.2783 2596.3145 1245.0459 2583.3066 C 1231.8125 2570.3018 1225.252 2553.5615 1225.3662 2533.0898 C 1225.252 2514.9951 1230.0313 2499.6426 1239.7021 2487.0293 C 1249.3721 2474.4199 1263.2246 2464.8057 1281.2666 2458.1895 C 1299.3047 2451.5723 1320.71 2448.2646 1345.4795 2448.2646 C 1383.1416 2448.2646 1412.8574 2456.0684 1434.6309 2471.6758 C 1456.4014 2487.2842 1467.8525 2508.8877 1468.9854 2536.4824 Z M 1511.7324 2712.2412 V 2451.6572 H 1605.3799 V 2712.2412 H 1511.7324 Z M 1558.5566 2424.5137 C 1545.8877 2424.5137 1535.0303 2420.3301 1525.9834 2411.959 C 1516.9336 2403.5908 1512.4111 2393.5254 1512.4111 2381.7617 C 1512.4111 2370 1516.9336 2359.9346 1525.9834 2351.5635 C 1535.0303 2343.1953 1545.8877 2339.0088 1558.5566 2339.0088 C 1571.3359 2339.0088 1582.2227 2343.1953 1591.2139 2351.5635 C 1600.2051 2359.9346 1604.7012 2370 1604.7012 2381.7617 C 1604.7012 2393.5254 1600.2051 2403.5908 1591.2139 2411.959 C 1582.2227 2420.3301 1571.3359 2424.5137 1558.5566 2424.5137 Z M 1808.2764 2451.6572 V 2519.5176 H 1636.5898 V 2451.6572 H 1808.2764 Z M 1669.8408 2389.2256 H 1763.4883 V 2628.4336 C 1763.4883 2632.0547 1764.1084 2635.0791 1765.3545 2637.5098 C 1766.5977 2639.9434 1768.5195 2641.751 1771.123 2642.9385 C 1773.7236 2644.126 1777.0605 2644.7197 1781.1318 2644.7197 C 1783.958 2644.7197 1787.2666 2644.3809 1791.0566 2643.7021 C 1794.8447 2643.0234 1797.6436 2642.459 1799.4541 2642.0059 L 1813.0264 2707.8301 C 1808.8408 2709.0762 1802.874 2710.6025 1795.1279 2712.4111 C 1787.3799 2714.2188 1778.1895 2715.4063 1767.5605 2715.9736 C 1746.0703 2717.1025 1728.0312 2714.8711 1713.4414 2709.2725 S 1687.8799 2694.8252 1680.5293 2682.7217 C 1673.1758 2670.6211 1669.6133 2655.4668 1669.8408 2637.2559 V 2389.2256 Z M 1968.4229 2716.9912 C 1940.5996 2716.9912 1916.6504 2711.6475 1896.5752 2700.959 C 1876.498 2690.2715 1861.0605 2674.8916 1850.2607 2654.8145 C 1839.459 2634.7402 1834.0596 2610.6787 1834.0596 2582.6279 C 1834.0596 2555.7119 1839.4883 2532.1855 1850.3457 2512.0527 C 1861.2031 2491.9229 1876.5273 2476.2568 1896.3213 2465.0596 C 1916.1123 2453.8633 1939.4678 2448.2646 1966.3867 2448.2646 C 1986.0664 2448.2646 2003.8799 2451.3184 2019.8271 2457.4258 S 2049.4023 2472.3838 2060.7129 2483.9756 C 2072.0215 2495.5703 2080.7314 2509.6221 2086.8389 2526.1338 C 2092.9463 2542.6484 2096 2561.252 2096 2581.9492 V 2603.665 H 1863.2393 V 2552.0908 H 2009.8174 C 2009.7031 2544.626 2007.8086 2538.0391 2004.1348 2532.3262 C 2000.458 2526.6162 1995.5381 2522.1475 1989.375 2518.9238 C 1983.209 2515.7002 1976.2266 2514.0889 1968.4229 2514.0889 C 1960.8438 2514.0889 1953.8887 2515.7002 1947.5557 2518.9238 C 1941.2207 2522.1475 1936.1602 2526.5879 1932.3721 2532.2412 C 1928.5811 2537.8984 1926.5742 2544.5146 1926.3496 2552.0908 V 2607.7363 C 1926.3496 2616.1074 1928.1016 2623.5723 1931.6084 2630.1299 C 1935.1133 2636.6904 1940.1465 2641.8359 1946.707 2645.5684 C 1953.2656 2649.3008 1961.1836 2651.167 1970.459 2651.167 C 1976.9053 2651.167 1982.8135 2650.2627 1988.1875 2648.4521 C 1993.5576 2646.6445 1998.167 2644.0146 2002.0137 2640.5635 C 2005.8574 2637.1152 2008.6855 2632.959 2010.4961 2628.0947 H 2096 C 2093.0576 2646.1914 2086.1025 2661.8838 2075.1328 2675.1729 C 2064.1611 2688.4639 2049.6563 2698.7539 2031.6182 2706.0488 C 2013.5762 2713.3437 1992.5137 2716.9912 1968.4229 2716.9912 Z"
	/>
</symbol>
			</defs>
			<rect
				width="100%"
				height="100%"
				fill="white"
			/>
	
			<use
				href="#logo"
				height="50%"
				y="25%"
			/>
		</svg>
	