
		<svg
			xmlns="http://www.w3.org/2000/svg"
			viewBox="0 0 4000 4000"
		>
			<defs>
	<symbol viewBox="0 0 2296 3056" id="logo">
	<path d="M 2296 0 V 3056 H 0 V 0 Z M 2196 100 H 100 V 2956 H 2196 Z" />

	<path
		d="M 562.1038 1872 H 1733.8962 L 1148 1477.2944 L 562.1038 1872 Z M 199.9992 838.6473 V 1872.0001 L 562.103 1872.0001 L 785.8955 1233.353 L 199.9992 838.6473 Z M 2095.9993 838.6473 V 1871.9999 H 1733.8966 L 1510.1045 1233.3525 L 2095.9993 838.6473 Z M 1995.9993 1026.5913 L 1630.0122 1273.1493 L 1804.8174 1771.9999 H 1995.9993 V 1026.5913 M 1148 200 L 924.2079 838.6473 H 200 V 200 H 1148 Z M 1006.9961 300 H 300 V 738.6473 H 853.2872 L 1006.9961 300 M 1371.7925 838.6472 H 2096 V 200 L 1148 200 L 1371.7925 838.6472 Z"
	/>

	<path
		d="M 1957.5703 2727.9131 C 1983.71 2727.9131 2006.5654 2723.9551 2026.1406 2716.04 C 2045.7139 2708.124 2061.4531 2696.959 2073.3574 2682.5371 C 2085.2598 2668.1182 2092.8076 2651.0908 2096 2631.4541 H 2003.2227 C 2001.2588 2636.7324 1998.1895 2641.2422 1994.0186 2644.9844 C 1989.8457 2648.7295 1984.8438 2651.583 1979.0166 2653.5439 C 1973.1855 2655.5088 1966.7744 2656.4893 1959.7793 2656.4893 C 1949.7158 2656.4893 1941.124 2654.4648 1934.0078 2650.415 C 1926.8896 2646.3652 1921.4277 2640.7822 1917.625 2633.6631 C 1913.8193 2626.5479 1911.9189 2618.4482 1911.9189 2609.3643 V 2548.9863 C 1912.1631 2540.7656 1914.3408 2533.5869 1918.4531 2527.4482 C 1922.5635 2521.3135 1928.0547 2516.4961 1934.9287 2512.998 C 1941.7998 2509.501 1949.3477 2507.752 1957.5703 2507.752 C 1966.0381 2507.752 1973.6143 2509.501 1980.3047 2512.998 C 1986.9922 2516.4961 1992.3301 2521.3447 1996.3193 2527.54 C 2000.3066 2533.7393 2002.3633 2540.8867 2002.4863 2548.9863 H 1843.4404 V 2604.9463 H 2096 V 2581.3848 C 2096 2558.9268 2092.6865 2538.7402 2086.0596 2520.8213 C 2079.4326 2502.9053 2069.9814 2487.6582 2057.7109 2475.0771 C 2045.4375 2462.499 2030.6514 2452.8955 2013.3477 2446.2686 S 1976.7148 2436.3281 1955.3613 2436.3281 C 1926.1533 2436.3281 1900.8105 2442.4033 1879.3359 2454.5518 C 1857.8594 2466.7012 1841.2314 2483.7002 1829.4502 2505.543 C 1817.6689 2527.3877 1811.7783 2552.915 1811.7783 2582.1211 C 1811.7783 2612.5576 1817.6377 2638.665 1829.3584 2660.4473 C 1841.0762 2682.2324 1857.8271 2698.9199 1879.6123 2710.5176 C 1901.3945 2722.1143 1927.3818 2727.9131 1957.5703 2727.9131 Z M 1633.5918 2372.2676 V 2641.3945 C 1633.3447 2661.1553 1637.21 2677.5986 1645.1885 2690.7285 C 1653.165 2703.8613 1665.0693 2713.4629 1680.9004 2719.5371 C 1696.7314 2725.6123 1716.3047 2728.0342 1739.6221 2726.8086 C 1751.1563 2726.1934 1761.1279 2724.9043 1769.5361 2722.9424 C 1777.9404 2720.9814 1784.415 2719.3242 1788.9561 2717.9727 L 1774.2295 2646.5488 C 1772.2656 2647.041 1769.2275 2647.6533 1765.1182 2648.3896 C 1761.0049 2649.126 1757.415 2649.4941 1754.3486 2649.4941 C 1749.9307 2649.4941 1746.3096 2648.8506 1743.4883 2647.5615 C 1740.6641 2646.2734 1738.5781 2644.3115 1737.2295 2641.6709 C 1735.8779 2639.0332 1735.2041 2635.752 1735.2041 2631.8223 V 2372.2676 H 1633.5918 Z M 1783.8018 2440.0098 H 1597.5117 V 2513.6426 H 1783.8018 V 2440.0098 Z M 1420.7998 2663.1162 C 1412.209 2663.1162 1405.1533 2661.0312 1399.6309 2656.8574 C 1394.1084 2652.6875 1391.3477 2646.6729 1391.3477 2638.8174 C 1391.3477 2633.9111 1392.5439 2629.4609 1394.9365 2625.4717 C 1397.3301 2621.4854 1401.0117 2618.1084 1405.9814 2615.3477 C 1410.9521 2612.5859 1417.3633 2610.5928 1425.2178 2609.3643 C 1429.2676 2608.752 1433.1621 2608.0762 1436.9072 2607.3398 C 1440.6494 2606.6035 1444.207 2605.8066 1447.584 2604.9463 C 1450.958 2604.0898 1454.1475 2603.1689 1457.1563 2602.1855 C 1460.1621 2601.2051 1463.0156 2600.1602 1465.7158 2599.0557 V 2622.6182 C 1465.7158 2631.21 1463.5674 2638.5127 1459.2734 2644.5244 C 1454.9766 2650.5381 1449.4248 2655.1406 1442.6143 2658.3301 C 1435.8027 2661.5234 1428.5313 2663.1162 1420.7998 2663.1162 Z M 1387.666 2727.1768 C 1399.9355 2727.1768 1411.1963 2725.7041 1421.4443 2722.7588 C 1431.6895 2719.8135 1440.834 2715.0908 1448.873 2708.585 C 1456.9092 2702.0811 1463.752 2693.5527 1469.3975 2682.9971 H 1471.6064 V 2722.7588 H 1566.5928 V 2529.1055 C 1566.5928 2515.9746 1563.6162 2503.7939 1557.665 2492.5654 C 1551.7109 2481.3359 1543.0908 2471.5195 1531.8018 2463.1123 C 1520.5088 2454.708 1506.8271 2448.1406 1490.751 2443.415 C 1474.6729 2438.6924 1456.5117 2436.3281 1436.2627 2436.3281 C 1408.1592 2436.3281 1384.7207 2440.7178 1365.9443 2449.4902 C 1347.168 2458.2656 1332.9014 2469.9229 1323.1455 2484.4658 C 1313.3887 2499.0078 1307.8955 2514.8701 1306.6699 2532.0508 H 1400.1836 C 1401.4082 2523.3379 1405.0615 2516.8643 1411.1357 2512.6299 C 1417.2109 2508.3965 1425.0947 2506.2793 1434.79 2506.2793 C 1443.626 2506.2793 1450.8662 2508.2432 1456.5117 2512.1699 C 1462.1553 2516.0986 1464.9795 2521.7422 1464.9795 2529.1055 V 2529.8418 C 1464.9795 2535.2432 1462.8311 2539.5693 1458.5371 2542.8193 C 1454.2402 2546.0723 1447.2764 2548.5889 1437.6436 2550.3662 C 1428.0078 2552.1475 1415.2773 2553.6514 1399.4473 2554.877 C 1384.8408 2555.9814 1371.251 2558.374 1358.6729 2562.0557 C 1346.0918 2565.7373 1335.0791 2571.0762 1325.6299 2578.0713 C 1316.1787 2585.0664 1308.8154 2594.0576 1303.54 2605.0391 C 1298.2627 2616.0234 1295.625 2629.2451 1295.625 2644.708 C 1295.625 2663.4844 1299.5508 2678.9473 1307.4063 2691.0967 C 1315.2588 2703.2461 1326.0908 2712.2979 1339.8965 2718.249 S 1369.626 2727.1768 1387.666 2727.1768 Z M 1097.5542 2722.7588 H 1199.167 V 2575.4941 C 1199.167 2564.6963 1201.4365 2555.2764 1205.9775 2547.2373 C 1210.5166 2539.2012 1216.7471 2532.9424 1224.6631 2528.4609 C 1232.5771 2523.9824 1241.5049 2521.7422 1251.4463 2521.7422 C 1256.7217 2521.7422 1263.0439 2522.1738 1270.4072 2523.0303 C 1277.7705 2523.8906 1283.9658 2525.1787 1288.999 2526.8965 V 2440.1943 C 1284.9482 2438.9688 1280.7432 2438.0166 1276.3896 2437.3408 C 1272.0322 2436.668 1267.6455 2436.3281 1263.2275 2436.3281 C 1248.1318 2436.3281 1234.9717 2440.9307 1223.7412 2450.1348 C 1212.5127 2459.3379 1204.3213 2473.8809 1199.167 2493.7617 H 1196.2217 V 2440.0098 H 1097.5542 V 2722.7588 Z M 906.1167 2372.2676 V 2641.3945 C 905.8691 2661.1553 909.7349 2677.5986 917.7139 2690.7285 C 925.6895 2703.8613 937.5942 2713.4629 953.4253 2719.5371 C 969.2563 2725.6123 988.8296 2728.0342 1012.1475 2726.8086 C 1023.6812 2726.1934 1033.6533 2724.9043 1042.0605 2722.9424 C 1050.4653 2720.9814 1056.9395 2719.3242 1061.481 2717.9727 L 1046.7549 2646.5488 C 1044.79 2647.041 1041.7529 2647.6533 1037.6426 2648.3896 C 1033.5298 2649.126 1029.9399 2649.4941 1026.874 2649.4941 C 1022.4561 2649.4941 1018.835 2648.8506 1016.0132 2647.5615 C 1013.1885 2646.2734 1011.1035 2644.3115 1009.7544 2641.6709 C 1008.4023 2639.0332 1007.7295 2635.752 1007.7295 2631.8223 V 2372.2676 H 906.1167 Z M 1056.3271 2440.0098 H 870.0366 V 2513.6426 H 1056.3271 V 2440.0098 Z M 693.3252 2663.1162 C 684.7339 2663.1162 677.6782 2661.0312 672.1558 2656.8574 C 666.6333 2652.6875 663.8721 2646.6729 663.8721 2638.8174 C 663.8721 2633.9111 665.0688 2629.4609 667.4619 2625.4717 C 669.855 2621.4854 673.5366 2618.1084 678.5068 2615.3477 C 683.4771 2612.5859 689.8882 2610.5928 697.7432 2609.3643 C 701.793 2608.752 705.6875 2608.0762 709.4321 2607.3398 C 713.1743 2606.6035 716.7324 2605.8066 720.1089 2604.9463 C 723.4829 2604.0898 726.6729 2603.1689 729.6812 2602.1855 C 732.687 2601.2051 735.54 2600.1602 738.2412 2599.0557 V 2622.6182 C 738.2412 2631.21 736.0923 2638.5127 731.7983 2644.5244 C 727.501 2650.5381 721.9497 2655.1406 715.1387 2658.3301 C 708.3276 2661.5234 701.0566 2663.1162 693.3252 2663.1162 Z M 660.1904 2727.1768 C 672.4609 2727.1768 683.7212 2725.7041 693.9692 2722.7588 C 704.2148 2719.8135 713.3584 2715.0908 721.3975 2708.585 C 729.4341 2702.0811 736.2764 2693.5527 741.9229 2682.9971 H 744.1318 V 2722.7588 H 839.1177 V 2529.1055 C 839.1177 2515.9746 836.1406 2503.7939 830.1895 2492.5654 C 824.2358 2481.3359 815.6157 2471.5195 804.3262 2463.1123 C 793.0342 2454.708 779.3516 2448.1406 763.2759 2443.415 C 747.1978 2438.6924 729.0371 2436.3281 708.7881 2436.3281 C 680.6841 2436.3281 657.2451 2440.7178 638.4688 2449.4902 C 619.6929 2458.2656 605.4263 2469.9229 595.6699 2484.4658 C 585.9136 2499.0078 580.4199 2514.8701 579.1948 2532.0508 H 672.708 C 673.9336 2523.3379 677.5864 2516.8643 683.6611 2512.6299 C 689.7358 2508.3965 697.6196 2506.2793 707.3154 2506.2793 C 716.1514 2506.2793 723.3906 2508.2432 729.0371 2512.1699 C 734.6802 2516.0986 737.5049 2521.7422 737.5049 2529.1055 V 2529.8418 C 737.5049 2535.2432 735.356 2539.5693 731.062 2542.8193 C 726.7646 2546.0723 719.8013 2548.5889 710.1685 2550.3662 C 700.5332 2552.1475 687.8027 2553.6514 671.9717 2554.877 C 657.3662 2555.9814 643.7759 2558.374 631.1978 2562.0557 C 618.6167 2565.7373 607.6035 2571.0762 598.1553 2578.0713 C 588.7036 2585.0664 581.3403 2594.0576 576.0654 2605.0391 C 570.7876 2616.0234 568.1499 2629.2451 568.1499 2644.708 C 568.1499 2663.4844 572.0762 2678.9473 579.9312 2691.0967 C 587.7832 2703.2461 598.6152 2712.2979 612.4214 2718.249 S 642.1504 2727.1768 660.1904 2727.1768 Z M 529.8682 2345.7598 H 428.2554 V 2722.7588 H 529.8682 V 2345.7598 Z M 236.0801 2722.7588 H 337.6929 V 2427.4922 C 337.6929 2420.8652 339.3496 2415.5273 342.6631 2411.4775 S 352.4194 2405.4023 361.9917 2405.4023 C 365.6733 2405.4023 369.9673 2405.7422 374.8774 2406.415 C 379.7842 2407.0908 384.0815 2407.9795 387.7632 2409.084 L 402.4893 2336.1875 C 396.5986 2334.7148 387.5474 2332.998 375.3374 2331.0332 C 363.125 2329.0723 350.5786 2328.0879 337.6929 2328.0879 C 317.0757 2328.0879 299.1567 2331.8936 283.9409 2339.501 C 268.7227 2347.1123 256.9414 2358.585 248.5977 2373.9248 C 240.2505 2389.2666 236.0801 2408.5947 236.0801 2431.9102 V 2722.7588 Z M 389.2358 2440.0098 H 200 V 2513.6426 H 389.2358 V 2440.0098 Z"
	/>
</symbol>
			</defs>
			<rect
				width="100%"
				height="100%"
				fill="white"
			/>
			<use
				href="#logo"
				width="2296"
				height="3056"
				x="852"
				y="472"
			/>
		</svg>
	