
		<svg
			xmlns="http://www.w3.org/2000/svg"
			viewBox="0 0 4000 4000"
		>
			<defs>
	<symbol viewBox="0 0 2296 3056" id="logo">
	<path d="M 2296 0 V 3056 H 0 V 0 Z M 2196 100 H 100 V 2956 H 2196 Z" />
	<path
		d="M 625.6741 1586.9919 L 625.6743 1586.9918 L 625.6744 1586.9919 L 696.3302 1516.3355 L 696.3301 1516.3354 L 921.0156 1291.6484 L 850.36 1220.9919 L 625.6744 1445.6793 L 548.6594 1368.6636 L 478.0035 1439.3203 L 555.0186 1516.3357 L 625.6741 1586.9919 Z M 1484.6709 1586.9844 L 1597.0352 1474.6202 L 1709.2434 1586.8283 L 1779.8333 1516.2383 L 1667.6252 1404.0302 L 1779.9895 1291.6659 L 1709.3391 1221.0156 L 1596.9749 1333.3799 L 1484.7668 1221.1719 L 1414.1768 1291.7618 L 1526.3849 1403.9698 L 1414.0206 1516.3341 L 1484.6709 1586.9844 Z M 200 1872 H 2095.9851 L 2096 1872 V 200 H 200 L 200 1872 Z M 1098 1772 H 300 V 1036 H 1098 V 1772 Z M 328.7999 936 L 1148 300 L 1967.2002 936 H 328.7999 Z M 1995.9851 1772 H 1198 V 1036 H 1995.9851 V 1772 Z"
	/>
	<path
		d="M 2096 2300.4238 H 1974.9766 V 2749.4375 H 2096 V 2300.4238 Z M 1761.001 2755.5762 C 1792.1338 2755.5762 1819.3545 2750.8623 1842.6699 2741.4346 C 1865.9814 2732.0078 1884.7275 2718.709 1898.9063 2701.5322 C 1913.082 2684.3594 1922.0713 2664.0791 1925.873 2640.6924 H 1815.374 C 1813.0342 2646.9785 1809.3789 2652.3496 1804.4111 2656.8066 C 1799.4404 2661.2666 1793.4834 2664.665 1786.543 2667.001 C 1779.5996 2669.3408 1771.9629 2670.5088 1763.6318 2670.5088 C 1751.6455 2670.5088 1741.4131 2668.0977 1732.9375 2663.2744 C 1724.459 2658.4512 1717.9541 2651.8018 1713.4248 2643.3232 C 1708.8926 2634.8477 1706.6279 2625.2012 1706.6279 2614.3828 V 2542.4697 C 1706.9199 2532.6797 1709.5127 2524.1289 1714.4111 2516.8184 C 1719.3066 2509.5117 1725.8467 2503.7734 1734.0342 2499.6074 C 1742.2178 2495.4424 1751.207 2493.3594 1761.001 2493.3594 C 1771.0859 2493.3594 1780.1094 2495.4424 1788.0781 2499.6074 C 1796.043 2503.7734 1802.4004 2509.5488 1807.1523 2516.9277 C 1811.9004 2524.3105 1814.3496 2532.8232 1814.4971 2542.4697 H 1625.0693 V 2609.1211 H 1925.873 V 2581.0576 C 1925.873 2554.3096 1921.9268 2530.2676 1914.0342 2508.9258 C 1906.1416 2487.5869 1894.8848 2469.4277 1880.2705 2454.4434 C 1865.6533 2439.4629 1848.041 2428.0244 1827.4326 2420.1318 C 1806.8232 2412.2383 1783.8027 2408.292 1758.3701 2408.292 C 1723.582 2408.292 1693.3984 2415.5273 1667.8223 2429.9971 C 1642.2422 2444.4678 1622.4385 2464.7139 1608.4063 2490.7285 C 1594.375 2516.7461 1587.3594 2547.1494 1587.3594 2581.9346 C 1587.3594 2618.1855 1594.3369 2649.2803 1608.2969 2675.2227 C 1622.2529 2701.1689 1642.2041 2721.0449 1668.1504 2734.8574 C 1694.0937 2748.6699 1725.0449 2755.5762 1761.001 2755.5762 Z M 1351.459 2749.4375 H 1472.4824 V 2574.041 C 1472.4824 2561.1816 1475.1855 2549.9619 1480.5947 2540.3877 C 1486 2530.8154 1493.4199 2523.3613 1502.8477 2518.0244 C 1512.2754 2512.6904 1522.9082 2510.0215 1534.748 2510.0215 C 1541.0303 2510.0215 1548.5605 2510.5361 1557.3301 2511.5566 C 1566.0996 2512.5811 1573.4785 2514.1152 1579.4736 2516.1611 V 2412.8965 C 1574.6504 2411.4365 1569.6416 2410.3027 1564.4561 2409.498 C 1559.2656 2408.6963 1554.041 2408.292 1548.7793 2408.292 C 1530.8018 2408.292 1515.125 2413.7734 1501.751 2424.7354 C 1488.3779 2435.6982 1478.6211 2453.0186 1472.4824 2476.6963 H 1468.9746 V 2412.6768 H 1351.459 V 2749.4375 Z M 1073.459 2560.0098 C 1073.6025 2548.9033 1075.6855 2539.3662 1079.708 2531.3984 C 1083.7256 2523.4336 1089.4258 2517.2949 1096.8086 2512.9814 C 1104.1875 2508.6719 1112.7754 2506.5137 1122.5703 2506.5137 C 1138.0605 2506.5137 1150.0107 2511.2656 1158.417 2520.7646 C 1166.8193 2530.2676 1170.9482 2543.3467 1170.8037 2560.0098 V 2749.4375 H 1291.8271 V 2534.5771 C 1291.9717 2510.0215 1287.1865 2488.2451 1277.4678 2469.2422 C 1267.7451 2450.2432 1254.0791 2435.335 1236.4678 2424.5166 C 1218.8525 2413.7012 1198.1338 2408.292 1174.3115 2408.292 C 1149.4619 2408.292 1128.1953 2414.3213 1110.5117 2426.3799 C 1092.8242 2438.4385 1080.1807 2455.2109 1072.582 2476.6963 H 1069.0742 V 2300.4238 H 952.4355 V 2749.4375 H 1073.459 V 2560.0098 Z M 740.2139 2755.5762 C 773.5391 2755.5762 802.2227 2749.5811 826.2676 2737.5986 C 850.3096 2725.6152 868.9111 2708.624 882.0654 2686.624 C 895.2207 2664.627 902.0176 2638.7939 902.4561 2609.1211 H 790.2021 C 789.3252 2620.8164 786.7285 2630.7158 782.4189 2638.8281 C 778.1055 2646.9404 772.5156 2653.0791 765.6465 2657.2451 C 758.7744 2661.4102 750.8818 2663.4932 741.9678 2663.4932 C 731.4443 2663.4932 722.2363 2660.4619 714.3438 2654.3945 C 706.4502 2648.3311 700.3115 2639.1953 695.9268 2626.9893 C 691.542 2614.7871 689.3496 2599.4736 689.3496 2581.0576 C 689.3496 2562.6406 691.542 2547.3311 695.9268 2535.125 C 700.3115 2522.9229 706.4502 2513.7871 714.3438 2507.7197 C 722.2363 2501.6563 731.4443 2498.6211 741.9678 2498.6211 C 755.4141 2498.6211 766.4141 2503.2627 774.9648 2512.543 C 783.5156 2521.8271 788.5918 2535.3105 790.2021 2552.9941 H 902.4561 C 902.3086 2523.7627 895.584 2498.292 882.2852 2476.5869 C 868.9834 2454.8818 850.2373 2438.0752 826.0488 2426.1602 C 801.8564 2414.249 773.2451 2408.292 740.2139 2408.292 C 703.6719 2408.292 672.3926 2415.5645 646.377 2430.1074 C 620.3594 2444.6523 600.4082 2464.9668 586.5234 2491.0576 C 572.6357 2517.1475 565.6953 2547.4404 565.6953 2581.9346 C 565.6953 2616.4307 572.6357 2646.7207 586.5234 2672.8115 C 600.4082 2698.9014 620.3594 2719.2197 646.377 2733.7617 C 672.3926 2748.3066 703.6719 2755.5762 740.2139 2755.5762 Z M 522.7295 2522.2998 C 521.2666 2486.6377 506.4668 2458.7187 478.332 2438.5479 C 450.1934 2418.377 411.791 2408.292 363.1182 2408.292 C 331.1084 2408.292 303.4463 2412.5674 280.1348 2421.1182 C 256.8193 2429.6689 238.916 2442.0938 226.4189 2458.3896 C 213.9219 2474.6895 207.7461 2494.5312 207.8936 2517.915 C 207.7461 2544.3711 216.2246 2566.0049 233.3252 2582.8115 C 250.4268 2599.6211 276.1504 2611.0215 310.5 2617.0137 L 370.1348 2627.5371 C 383.2891 2629.877 392.9697 2632.9463 399.1846 2636.7451 C 405.3955 2640.5479 408.5742 2645.6631 408.7217 2652.0928 C 408.5742 2659.1084 404.8848 2664.5176 397.6494 2668.3164 C 390.415 2672.1191 381.2402 2674.0176 370.1348 2674.0176 C 356.3936 2674.0176 345.0313 2671.1328 336.042 2665.3574 C 327.0527 2659.585 321.7529 2651.3633 320.1465 2640.6924 H 200 C 203.3613 2675.1885 219.5469 2702.958 248.5635 2724.0049 C 277.5752 2745.0527 317.8066 2755.5762 369.2578 2755.5762 C 400.3906 2755.5762 428.125 2750.7871 452.4609 2741.2158 S 496.0156 2718.0508 510.1221 2700.4365 C 524.2256 2682.8242 531.3516 2662.0342 531.499 2638.0605 C 531.3516 2613.2148 522.8389 2593.373 505.957 2578.5361 C 489.0752 2563.7031 463.3857 2553.1416 428.8926 2546.8555 L 360.4873 2534.5771 C 347.624 2532.2412 338.9639 2528.9521 334.5068 2524.7109 C 330.0469 2520.4736 327.8916 2515.8691 328.0391 2510.8984 C 327.8916 2503.8828 331.5469 2498.4775 339.002 2494.6748 C 346.4561 2490.876 355.3701 2488.9746 365.75 2488.9746 C 373.7861 2488.9746 381.1309 2490.3271 387.7832 2493.0303 C 394.4326 2495.7363 399.876 2499.5732 404.1172 2504.541 C 408.3555 2509.5117 410.7666 2515.4307 411.3525 2522.2998 H 522.7295 Z"
	/>
</symbol>
			</defs>
			<rect
				width="100%"
				height="100%"
				fill="white"
			/>
			<use
				href="#logo"
				width="2296"
				height="3056"
				x="852"
				y="472"
			/>
		</svg>
	