
		<svg
			xmlns="http://www.w3.org/2000/svg"
			viewBox="0 0 1280 640"
		>
			<defs>
	<symbol viewBox="0 0 2296 3056" id="logo">
	<path d="M 2296 0 V 3056 H 0 V 0 Z M 2196 100 H 100 V 2956 H 2196 Z" />
	<path
		d="M 1996 300 V 1772 H 300 V 300 H 1996 M 2096 200 H 200 V 1872 H 2096 V 200 Z"
	/>
	<path
		d="M 1680 674.3228 L 1248 766.1479 V 1397.6772 L 1680 1305.8521 V 674.3228 Z M 200 200 V 1872 H 2096 V 200 H 200 Z M 616 674.3228 L 1048 766.1479 V 1397.6772 L 616 1305.8521 V 674.3228 Z M 1780 1386.8316 L 1248 1499.9126 V 1772 H 300 V 300 H 516 V 1398.1271 L 1148 1532.4628 V 685.1685 L 1780 550.8315 V 1386.8316 Z"
	/>
	<path
		d="M 2096 2333.2285 H 2009.0146 V 2655.9561 H 2096 V 2333.2285 Z M 1848.9121 2596.0752 C 1841.1357 2596.0752 1834.4658 2593.6074 1828.8984 2588.6689 C 1823.3291 2583.7314 1819.0742 2576.6924 1816.1348 2567.5527 C 1813.1924 2558.4131 1811.7227 2547.54 1811.7227 2534.9336 C 1811.7227 2522.2236 1813.1924 2511.3232 1816.1348 2502.2354 C 1819.0742 2493.1494 1823.3291 2486.1367 1828.8984 2481.1982 C 1834.4658 2476.2607 1841.1357 2473.791 1848.9121 2473.791 C 1856.2637 2473.791 1862.6211 2476.2607 1867.9795 2481.1982 C 1873.3369 2486.1367 1877.4854 2493.1494 1880.4277 2502.2354 C 1883.3682 2511.3232 1884.8408 2522.2236 1884.8408 2534.9336 C 1884.8408 2547.54 1883.3682 2558.4131 1880.4277 2567.5527 C 1877.4854 2576.6924 1873.3369 2583.7314 1867.9795 2588.6689 C 1862.6211 2593.6074 1856.2637 2596.0752 1848.9121 2596.0752 Z M 1848.2813 2660.3682 C 1874.543 2660.3682 1897.0264 2655.1436 1915.7266 2644.6885 C 1934.4248 2634.2373 1948.7646 2619.6338 1958.7461 2600.8809 C 1968.7256 2582.1289 1973.7168 2560.3584 1973.7168 2535.5635 C 1973.7168 2510.7715 1968.7256 2488.998 1958.7461 2470.2461 C 1948.7646 2451.4932 1934.4248 2436.8926 1915.7266 2426.4385 C 1897.0264 2415.9863 1874.543 2410.7588 1848.2813 2410.7588 C 1822.0166 2410.7588 1799.5342 2415.9863 1780.8359 2426.4385 C 1762.1357 2436.8926 1747.7959 2451.4932 1737.8164 2470.2461 C 1727.835 2488.998 1722.8467 2510.7715 1722.8467 2535.5635 C 1722.8467 2560.3584 1727.835 2582.1289 1737.8164 2600.8809 C 1747.7959 2619.6338 1762.1357 2634.2373 1780.8359 2644.6885 C 1799.5342 2655.1436 1822.0166 2660.3682 1848.2813 2660.3682 Z M 1529.3379 2534.9336 C 1529.3379 2522.957 1530.8867 2512.6895 1533.9873 2504.126 C 1537.084 2495.5645 1541.4971 2488.998 1547.2236 2484.4277 C 1552.9482 2479.8584 1559.8037 2477.5732 1567.7881 2477.5732 C 1575.7705 2477.5732 1582.5742 2479.8584 1588.1953 2484.4277 C 1593.8135 2488.998 1598.123 2495.5645 1601.1172 2504.126 C 1604.1113 2512.6895 1605.6084 2522.957 1605.6084 2534.9336 C 1605.6084 2546.9092 1604.1113 2557.1797 1601.1172 2565.7402 C 1598.123 2574.3037 1593.8135 2580.8682 1588.1953 2585.4385 C 1582.5742 2590.0078 1575.7705 2592.293 1567.7881 2592.293 C 1559.8037 2592.293 1552.9482 2589.9561 1547.2236 2585.2803 C 1541.4971 2580.6074 1537.084 2573.9893 1533.9873 2565.4248 C 1530.8867 2556.8643 1529.3379 2546.7002 1529.3379 2534.9336 Z M 1444.2441 2746.7236 H 1531.2295 V 2616.2451 H 1532.4902 C 1535.8506 2624.4395 1540.6572 2631.7676 1546.9082 2638.2285 C 1553.1582 2644.6885 1560.7217 2649.7861 1569.6006 2653.5137 C 1578.4766 2657.2412 1588.5889 2659.1074 1599.9346 2659.1074 C 1617.1631 2659.1074 1633 2654.5918 1647.4463 2645.5557 C 1661.8896 2636.5215 1673.4473 2622.8125 1682.1143 2604.4268 C 1690.7813 2586.0439 1695.1143 2562.8789 1695.1143 2534.9336 C 1695.1143 2505.7285 1690.5693 2481.9854 1681.4834 2463.7061 C 1672.3955 2445.4268 1660.6289 2432.0322 1646.1855 2423.5225 C 1631.7393 2415.0137 1616.5332 2410.7588 1600.5654 2410.7588 C 1588.5889 2410.7588 1578.083 2412.834 1569.0488 2416.9834 C 1560.0127 2421.1348 1552.4482 2426.6494 1546.3574 2433.5293 C 1540.2627 2440.4111 1535.6416 2447.9482 1532.4902 2456.1426 H 1530.5986 V 2413.9102 H 1444.2441 V 2746.7236 Z M 1284.1416 2596.0752 C 1276.3652 2596.0752 1269.6953 2593.6074 1264.1279 2588.6689 C 1258.5586 2583.7314 1254.3037 2576.6924 1251.3643 2567.5527 C 1248.4219 2558.4131 1246.9521 2547.54 1246.9521 2534.9336 C 1246.9521 2522.2236 1248.4219 2511.3232 1251.3643 2502.2354 C 1254.3037 2493.1494 1258.5586 2486.1367 1264.1279 2481.1982 C 1269.6953 2476.2607 1276.3652 2473.791 1284.1416 2473.791 C 1291.4932 2473.791 1297.8506 2476.2607 1303.209 2481.1982 C 1308.5664 2486.1367 1312.7148 2493.1494 1315.6572 2502.2354 C 1318.5977 2511.3232 1320.0703 2522.2236 1320.0703 2534.9336 C 1320.0703 2547.54 1318.5977 2558.4131 1315.6572 2567.5527 C 1312.7148 2576.6924 1308.5664 2583.7314 1303.209 2588.6689 C 1297.8506 2593.6074 1291.4932 2596.0752 1284.1416 2596.0752 Z M 1283.5107 2660.3682 C 1309.7725 2660.3682 1332.2559 2655.1436 1350.9561 2644.6885 C 1369.6543 2634.2373 1383.9941 2619.6338 1393.9756 2600.8809 C 1403.9551 2582.1289 1408.9463 2560.3584 1408.9463 2535.5635 C 1408.9463 2510.7715 1403.9551 2488.998 1393.9756 2470.2461 C 1383.9941 2451.4932 1369.6543 2436.8926 1350.9561 2426.4385 C 1332.2559 2415.9863 1309.7725 2410.7588 1283.5107 2410.7588 C 1257.2461 2410.7588 1234.7637 2415.9863 1216.0654 2426.4385 C 1197.3652 2436.8926 1183.0254 2451.4932 1173.0459 2470.2461 C 1163.0645 2488.998 1158.0762 2510.7715 1158.0762 2535.5635 C 1158.0762 2560.3584 1163.0645 2582.1289 1173.0459 2600.8809 C 1183.0254 2619.6338 1197.3652 2634.2373 1216.0654 2644.6885 C 1234.7637 2655.1436 1257.2461 2660.3682 1283.5107 2660.3682 Z M 1079.291 2388.6973 C 1091.1611 2388.6973 1101.2734 2384.8115 1109.6255 2377.0361 C 1117.9771 2369.2627 1122.1533 2359.9141 1122.1533 2348.9863 C 1122.1533 2338.0615 1117.9771 2328.7129 1109.6255 2320.9365 C 1101.2734 2313.1641 1091.1611 2309.2764 1079.291 2309.2764 C 1067.5239 2309.2764 1057.4385 2313.1641 1049.0352 2320.9365 C 1040.6289 2328.7129 1036.4287 2338.0615 1036.4287 2348.9863 C 1036.4287 2359.9141 1040.6289 2369.2627 1049.0352 2377.0361 C 1057.4385 2384.8115 1067.5239 2388.6973 1079.291 2388.6973 Z M 1035.7983 2655.9561 H 1122.7837 V 2413.9102 H 1035.7983 V 2655.9561 Z M 991.6816 2333.2285 H 904.6963 V 2655.9561 H 991.6816 V 2333.2285 Z M 702.3628 2534.9336 C 702.3628 2522.957 703.9116 2512.6895 707.0112 2504.126 C 710.1089 2495.5645 714.521 2488.998 720.2485 2484.4277 C 725.9731 2479.8584 732.8276 2477.5732 740.813 2477.5732 C 748.7954 2477.5732 755.5981 2479.8584 761.2197 2484.4277 C 766.8384 2488.998 771.1475 2495.5645 774.1411 2504.126 C 777.1353 2512.6895 778.6323 2522.957 778.6323 2534.9336 C 778.6323 2546.9092 777.1353 2557.1797 774.1411 2565.7402 C 771.1475 2574.3037 766.8384 2580.8682 761.2197 2585.4385 C 755.5981 2590.0078 748.7954 2592.293 740.813 2592.293 C 732.8276 2592.293 725.9731 2589.9561 720.2485 2585.2803 C 714.521 2580.6074 710.1089 2573.9893 707.0112 2565.4248 C 703.9116 2556.8643 702.3628 2546.7002 702.3628 2534.9336 Z M 617.2686 2655.9561 H 703.6235 V 2616.2451 H 705.5146 C 708.8755 2624.4395 713.6816 2631.7676 719.9331 2638.2285 C 726.1821 2644.6885 733.7461 2649.7861 742.625 2653.5137 C 751.5015 2657.2412 761.6138 2659.1074 772.9595 2659.1074 C 790.1875 2659.1074 806.0244 2654.5918 820.4702 2645.5557 C 834.9136 2636.5215 846.4712 2622.8125 855.1382 2604.4268 C 863.8057 2586.0439 868.1387 2562.8789 868.1387 2534.9336 C 868.1387 2505.7285 863.5937 2481.9854 854.5083 2463.7061 C 845.4199 2445.4268 833.6533 2432.0322 819.21 2423.5225 C 804.7637 2415.0137 789.5571 2410.7588 773.5898 2410.7588 C 761.6138 2410.7588 751.1074 2412.834 742.0732 2416.9834 C 733.0371 2421.1348 725.4731 2426.6494 719.3818 2433.5293 C 713.2876 2440.4111 708.666 2447.9482 705.5146 2456.1426 H 704.2539 V 2333.2285 H 617.2686 V 2655.9561 Z M 530.9204 2388.6973 C 542.7905 2388.6973 552.9028 2384.8115 561.2549 2377.0361 C 569.6064 2369.2627 573.7827 2359.9141 573.7827 2348.9863 C 573.7827 2338.0615 569.6064 2328.7129 561.2549 2320.9365 C 552.9028 2313.1641 542.7905 2309.2764 530.9204 2309.2764 C 519.1533 2309.2764 509.0679 2313.1641 500.6646 2320.9365 C 492.2583 2328.7129 488.0581 2338.0615 488.0581 2348.9863 C 488.0581 2359.9141 492.2583 2369.2627 500.6646 2377.0361 C 509.0679 2384.8115 519.1533 2388.6973 530.9204 2388.6973 Z M 487.4277 2655.9561 H 574.4131 V 2413.9102 H 487.4277 V 2655.9561 Z M 285.0942 2534.9336 C 285.0942 2522.957 286.6431 2512.6895 289.7427 2504.126 C 292.8403 2495.5645 297.2524 2488.998 302.98 2484.4277 C 308.7046 2479.8584 315.5591 2477.5732 323.5444 2477.5732 C 331.5269 2477.5732 338.3296 2479.8584 343.9512 2484.4277 C 349.5698 2488.998 353.8789 2495.5645 356.8726 2504.126 C 359.8667 2512.6895 361.3638 2522.957 361.3638 2534.9336 C 361.3638 2546.9092 359.8667 2557.1797 356.8726 2565.7402 C 353.8789 2574.3037 349.5698 2580.8682 343.9512 2585.4385 C 338.3296 2590.0078 331.5269 2592.293 323.5444 2592.293 C 315.5591 2592.293 308.7046 2589.9561 302.98 2585.2803 C 297.2524 2580.6074 292.8403 2573.9893 289.7427 2565.4248 C 286.6431 2556.8643 285.0942 2546.7002 285.0942 2534.9336 Z M 200 2655.9561 H 286.355 V 2616.2451 H 288.2461 C 291.6069 2624.4395 296.4131 2631.7676 302.6646 2638.2285 C 308.9136 2644.6885 316.4775 2649.7861 325.3564 2653.5137 C 334.2329 2657.2412 344.3452 2659.1074 355.6909 2659.1074 C 372.9189 2659.1074 388.7559 2654.5918 403.2017 2645.5557 C 417.645 2636.5215 429.2026 2622.8125 437.8696 2604.4268 C 446.5371 2586.0439 450.8701 2562.8789 450.8701 2534.9336 C 450.8701 2505.7285 446.3252 2481.9854 437.2397 2463.7061 C 428.1514 2445.4268 416.3848 2432.0322 401.9414 2423.5225 C 387.4951 2415.0137 372.2886 2410.7588 356.3213 2410.7588 C 344.3452 2410.7588 333.8389 2412.834 324.8047 2416.9834 C 315.7686 2421.1348 308.2046 2426.6494 302.1133 2433.5293 C 296.019 2440.4111 291.3975 2447.9482 288.2461 2456.1426 H 286.9854 V 2333.2285 H 200 V 2655.9561 Z"
	/>
</symbol>
			</defs>
			<rect
				width="100%"
				height="100%"
				fill="white"
			/>
	
			<use
				href="#logo"
				height="50%"
				y="25%"
			/>
		</svg>
	