
		<svg
			xmlns="http://www.w3.org/2000/svg"
			viewBox="-4000 0 12000 4000"
		>
			<defs>
	<symbol viewBox="0 0 2296 3056" id="logo">
	<path d="M 2296 0 V 3056 H 0 V 0 Z M 2196 100 H 100 V 2956 H 2196 Z" />
	<g
		fill="none"
		stroke="black"
		stroke-miterlimit="100"
		stroke-width="100"
	>
		<path
			d="M 250 200 V 1056 M 1056 250 H 200 M 200 1822 C 2096 1822 250 250 250 250 M 2046 1872 V 1016 M 1240 1822 H 2096 M 2046 1822 S 200 250 2096 250"
		/>
	</g>
	<path
		d="M 383.1304 2539.7676 V 2380.9072 H 484.6245 V 2663.3252 H 388.2788 V 2609.6367 H 385.3369 C 379.2061 2627.6553 368.4814 2641.7207 353.1602 2651.834 C 337.8364 2661.9463 319.6338 2667.0029 298.5522 2667.0029 C 278.8154 2667.0029 261.5635 2662.4687 246.7939 2653.3965 C 232.0215 2644.3271 220.5615 2631.8242 212.4111 2615.8877 C 204.2578 2599.9551 200.1206 2581.6885 200 2561.0957 V 2380.9072 H 301.4941 V 2539.7676 C 301.6147 2553.7412 305.2002 2564.7129 312.25 2572.6797 C 319.2974 2580.6484 329.1943 2584.6309 341.9443 2584.6309 C 350.4023 2584.6309 357.7256 2582.8232 363.9165 2579.2061 C 370.1045 2575.5928 374.8853 2570.4443 378.2578 2563.7617 C 381.6279 2557.082 383.251 2549.084 383.1304 2539.7676 Z M 536.1025 2769.2324 V 2380.9072 H 636.8613 V 2430.1836 H 639.0674 C 642.7446 2420.6221 648.1372 2411.8281 655.2476 2403.7988 C 662.3555 2395.7715 671.1807 2389.3359 681.7246 2384.4922 C 692.2651 2379.6514 704.5239 2377.2295 718.4976 2377.2295 C 737.1284 2377.2295 754.8716 2382.1943 771.7266 2392.123 C 788.5791 2402.0518 802.3086 2417.6807 812.9126 2439.0088 C 823.5137 2460.3369 828.8174 2488.041 828.8174 2522.1162 C 828.8174 2554.7236 823.7607 2581.752 813.6484 2603.2012 C 803.5356 2624.6533 790.0503 2640.6494 773.1978 2651.1904 C 756.3423 2661.7334 737.8638 2667.0029 717.7622 2667.0029 C 704.5239 2667.0029 692.7246 2664.8252 682.3677 2660.4756 C 672.0083 2656.126 663.1826 2650.1787 655.8911 2642.6406 C 648.5967 2635.1016 642.9888 2626.5518 639.0674 2616.9912 H 637.5967 V 2769.2324 H 536.1025 Z M 635.3901 2522.1162 C 635.3901 2535.8457 637.1973 2547.7051 640.8145 2557.6943 C 644.4282 2567.6865 649.5767 2575.4082 656.2588 2580.8613 C 662.9385 2586.3174 670.9365 2589.043 680.2534 2589.043 C 689.5674 2589.043 697.5054 2586.377 704.064 2581.0449 C 710.6201 2575.7129 715.6475 2568.0537 719.1411 2558.0615 C 722.6348 2548.0732 724.3813 2536.0898 724.3813 2522.1162 S 722.6348 2496.1621 719.1411 2486.1699 C 715.6475 2476.1816 710.6201 2468.5195 704.064 2463.1875 C 697.5054 2457.8555 689.5674 2455.1885 680.2534 2455.1885 C 670.9365 2455.1885 662.9385 2457.8555 656.2588 2463.1875 C 649.5767 2468.5195 644.4282 2476.1816 640.8145 2486.1699 C 637.1973 2496.1621 635.3901 2508.1426 635.3901 2522.1162 Z M 871.4707 2663.3252 V 2286.7676 H 972.9648 V 2663.3252 H 871.4707 Z M 962.6685 2596.3984 L 963.4038 2475.7822 H 976.6421 L 1045.04 2380.9072 H 1159.0371 L 1044.3047 2528.7354 H 1015.6216 L 962.6685 2596.3984 Z M 1045.7754 2663.3252 L 981.0547 2551.5352 L 1047.2466 2479.459 L 1161.9785 2663.3252 H 1045.7754 Z M 1309.0684 2668.4736 C 1278.9141 2668.4736 1252.959 2662.6816 1231.2012 2651.0977 C 1209.4434 2639.5146 1192.7109 2622.8457 1181.0059 2601.0869 C 1169.2988 2579.3301 1163.4473 2553.2529 1163.4473 2522.8516 C 1163.4473 2493.6797 1169.3301 2468.1826 1181.0977 2446.3633 C 1192.8652 2424.5469 1209.4746 2407.5674 1230.9258 2395.4326 C 1252.375 2383.2979 1277.6875 2377.2295 1306.8633 2377.2295 C 1328.1914 2377.2295 1347.4961 2380.5391 1364.7813 2387.1582 C 1382.0645 2393.7773 1396.834 2403.3701 1409.0918 2415.9336 C 1421.3477 2428.5 1430.7891 2443.7285 1437.4082 2461.624 C 1444.0273 2479.5225 1447.3359 2499.6846 1447.3359 2522.1162 V 2545.6514 H 1195.0723 V 2489.7559 H 1353.9316 C 1353.8086 2481.666 1351.7539 2474.5264 1347.7734 2468.335 C 1343.7871 2462.1475 1338.4551 2457.3037 1331.7773 2453.8096 C 1325.0937 2450.3164 1317.5273 2448.5693 1309.0684 2448.5693 C 1300.8555 2448.5693 1293.3164 2450.3164 1286.4531 2453.8096 C 1279.5879 2457.3037 1274.1035 2462.1152 1269.998 2468.2432 C 1265.8887 2474.374 1263.7148 2481.5449 1263.4707 2489.7559 V 2550.0635 C 1263.4707 2559.1367 1265.3691 2567.2266 1269.1699 2574.334 C 1272.9687 2581.4443 1278.4238 2587.0205 1285.5332 2591.0654 C 1292.6426 2595.1113 1301.2227 2597.1338 1311.2754 2597.1338 C 1318.2617 2597.1338 1324.666 2596.1533 1330.4902 2594.1914 C 1336.3105 2592.2324 1341.3066 2589.3828 1345.4746 2585.6416 C 1349.6406 2581.9043 1352.7051 2577.3994 1354.668 2572.1279 H 1447.3359 C 1444.1465 2591.7412 1436.6094 2608.749 1424.7207 2623.1504 C 1412.8301 2637.5557 1397.1094 2648.708 1377.5586 2656.6143 C 1358.0059 2664.5205 1335.1777 2668.4736 1309.0684 2668.4736 Z M 1623.8398 2668.4736 C 1593.6855 2668.4736 1567.7285 2662.6816 1545.9727 2651.0977 C 1524.2129 2639.5146 1507.4805 2622.8457 1495.7773 2601.0869 C 1484.0703 2579.3301 1478.2168 2553.2529 1478.2168 2522.8516 C 1478.2168 2493.6797 1484.1016 2468.1826 1495.8691 2446.3633 C 1507.6367 2424.5469 1524.2441 2407.5674 1545.6973 2395.4326 C 1567.1465 2383.2979 1592.459 2377.2295 1621.6328 2377.2295 C 1642.9609 2377.2295 1662.2676 2380.5391 1679.5508 2387.1582 S 1711.6035 2403.3701 1723.8633 2415.9336 C 1736.1191 2428.5 1745.5586 2443.7285 1752.1777 2461.624 C 1758.7969 2479.5225 1762.1074 2499.6846 1762.1074 2522.1162 V 2545.6514 H 1509.8418 V 2489.7559 H 1668.7031 C 1668.5801 2481.666 1666.5254 2474.5264 1662.543 2468.335 C 1658.5586 2462.1475 1653.2266 2457.3037 1646.5469 2453.8096 C 1639.8652 2450.3164 1632.2969 2448.5693 1623.8398 2448.5693 C 1615.625 2448.5693 1608.0879 2450.3164 1601.2246 2453.8096 C 1594.3574 2457.3037 1588.873 2462.1152 1584.7676 2468.2432 C 1580.6602 2474.374 1578.4844 2481.5449 1578.2402 2489.7559 V 2550.0635 C 1578.2402 2559.1367 1580.1406 2567.2266 1583.9414 2574.334 C 1587.7383 2581.4443 1593.1934 2587.0205 1600.3047 2591.0654 C 1607.4121 2595.1113 1615.9941 2597.1338 1626.0469 2597.1338 C 1633.0332 2597.1338 1639.4355 2596.1533 1645.2598 2594.1914 C 1651.0801 2592.2324 1656.0762 2589.3828 1660.2441 2585.6416 C 1664.4102 2581.9043 1667.4766 2577.3994 1669.4375 2572.1279 H 1762.1074 C 1758.918 2591.7412 1751.3789 2608.749 1739.4902 2623.1504 C 1727.5996 2637.5557 1711.8789 2648.708 1692.3301 2656.6143 C 1672.7773 2664.5205 1649.9492 2668.4736 1623.8398 2668.4736 Z M 1803.2852 2769.2324 V 2380.9072 H 1904.0449 V 2430.1836 H 1906.25 C 1909.9277 2420.6221 1915.3203 2411.8281 1922.4316 2403.7988 C 1929.5391 2395.7715 1938.3633 2389.3359 1948.9082 2384.4922 C 1959.4473 2379.6514 1971.707 2377.2295 1985.6816 2377.2295 C 2004.3105 2377.2295 2022.0547 2382.1943 2038.9102 2392.123 C 2055.7617 2402.0518 2069.4922 2417.6807 2080.0957 2439.0088 C 2090.6973 2460.3369 2096 2488.041 2096 2522.1162 C 2096 2554.7236 2090.9434 2581.752 2080.832 2603.2012 C 2070.7187 2624.6533 2057.2324 2640.6494 2040.3809 2651.1904 C 2023.5254 2661.7334 2005.0469 2667.0029 1984.9453 2667.0029 C 1971.707 2667.0029 1959.9082 2664.8252 1949.5508 2660.4756 C 1939.1914 2656.126 1930.3652 2650.1787 1923.0742 2642.6406 C 1915.7793 2635.1016 1910.1719 2626.5518 1906.25 2616.9912 H 1904.7793 V 2769.2324 H 1803.2852 Z M 1902.5742 2522.1162 C 1902.5742 2535.8457 1904.3809 2547.7051 1907.998 2557.6943 C 1911.6113 2567.6865 1916.7598 2575.4082 1923.4414 2580.8613 C 1930.1211 2586.3174 1938.1191 2589.043 1947.4375 2589.043 C 1956.75 2589.043 1964.6875 2586.377 1971.248 2581.0449 C 1977.8027 2575.7129 1982.8301 2568.0537 1986.3242 2558.0615 C 1989.8184 2548.0732 1991.5645 2536.0898 1991.5645 2522.1162 S 1989.8184 2496.1621 1986.3242 2486.1699 C 1982.8301 2476.1816 1977.8027 2468.5195 1971.248 2463.1875 C 1964.6875 2457.8555 1956.75 2455.1885 1947.4375 2455.1885 C 1938.1191 2455.1885 1930.1211 2457.8555 1923.4414 2463.1875 C 1916.7598 2468.5195 1911.6113 2476.1816 1907.998 2486.1699 C 1904.3809 2496.1621 1902.5742 2508.1426 1902.5742 2522.1162 Z"
	/>
</symbol>
			</defs>
			<rect
				width="4000"
				height="4000"
				fill="white"
			/>
			<use
				href="#logo"
				width="2296"
				height="3056"
				x="852"
				y="472"
			/>
		</svg>
	