
		<svg
			xmlns="http://www.w3.org/2000/svg"
			viewBox="0 0 4000 4000"
		>
			<defs>
	<symbol viewBox="0 0 2296 3056" id="logo">
	<path d="M 2296 0 V 3056 H 0 V 0 Z M 2196 100 H 100 V 2956 H 2196 Z" />

	<path
		d="M 1676.0947 300 V 1772 H 619.9053 V 300 H 1676.0947 M 1776.0947 200 H 519.9053 V 1872 H 1776.0947 V 200 Z M 1476.0947 500 V 1100.7474 H 819.9053 V 500 H 1476.0947 M 1576.0947 400 H 719.9053 V 1200.7474 H 1576.0947 V 400 Z"
	/>
	<path
		fill="none"
		stroke="black"
		stroke-miterlimit="100"
		stroke-width="100"
		d="M 2096 1502 H 1876.0947 M 2046 1332.0947 V 1552 M 200 569.9053 H 419.9053 M 250 739.8106 V 519.9053 M 2046 519.9053 V 739.8106 M 1876.0947 569.9053 H 2096 M 250 1552 V 1332.0947 M 419.9053 1502 H 200 M 1530.4094 1438.3827 C 1469.7466 1531.6161 1408.7198 1605.8235 1367.9588 1602.8057 C 1308.0817 1598.3725 1328.5228 1430.0026 1272.6946 1426.9777 C 1215.4797 1423.8777 1144.0195 1598.0075 1086.1773 1594.7271 C 1033.682 1591.7499 1058.5585 1446.3968 986.902 1438.3827 C 930.2892 1432.0512 839.1274 1514.3205 760.2735 1599.004"
	/>
	<path
		d="M 342.8267 2200 V 2705.832 H 206.4888 V 2200 H 342.8267 Z M 594.7446 2712.748 C 553.5786 2712.748 518.3403 2704.5586 489.0337 2688.1729 C 459.7231 2671.79 437.2471 2648.9014 421.606 2619.5098 C 405.9609 2590.1182 398.1421 2555.9951 398.1421 2517.1328 C 398.1421 2478.2754 405.9609 2444.1484 421.606 2414.7568 C 437.2471 2385.3652 459.7231 2362.4795 489.0337 2346.0938 C 518.3403 2329.7119 553.5786 2321.5186 594.7446 2321.5186 C 635.9067 2321.5186 671.145 2329.7119 700.4556 2346.0938 C 729.7622 2362.4795 752.2383 2385.3652 767.8833 2414.7568 C 783.5244 2444.1484 791.3472 2478.2754 791.3472 2517.1328 C 791.3472 2555.9951 783.5244 2590.1182 767.8833 2619.5098 C 752.2383 2648.9014 729.7622 2671.79 700.4556 2688.1729 C 671.145 2704.5586 635.9067 2712.748 594.7446 2712.748 Z M 595.7324 2611.9766 C 607.2559 2611.9766 617.2207 2608.1094 625.6182 2600.3682 C 634.0156 2592.6309 640.5186 2581.5967 645.1304 2567.2715 C 649.7378 2552.9463 652.0459 2535.9043 652.0459 2516.1455 C 652.0459 2496.2236 649.7378 2479.1396 645.1304 2464.8955 C 640.5186 2450.6543 634.0156 2439.6641 625.6182 2431.9219 C 617.2207 2424.1846 607.2559 2420.3135 595.7324 2420.3135 C 583.5454 2420.3135 573.0908 2424.1846 564.3652 2431.9219 C 555.6357 2439.6641 548.9668 2450.6543 544.3589 2464.8955 C 539.7471 2479.1396 537.4434 2496.2236 537.4434 2516.1455 C 537.4434 2535.9043 539.7471 2552.9463 544.3589 2567.2715 C 548.9668 2581.5967 555.6357 2592.6309 564.3652 2600.3682 C 573.0908 2608.1094 583.5454 2611.9766 595.7324 2611.9766 Z M 1029.4438 2856.001 C 991.4077 2856.001 958.8437 2850.6055 931.7598 2839.8232 C 904.6724 2829.0371 883.6782 2814.2178 868.7778 2795.3652 C 853.874 2776.5088 845.5186 2754.8975 843.7085 2730.5312 H 975.1064 C 976.4224 2738.5967 979.7144 2745.1035 984.9858 2750.043 C 990.2539 2754.9824 997.0459 2758.5645 1005.3623 2760.7871 C 1013.6753 2763.0098 1023.022 2764.1211 1033.3955 2764.1211 C 1051.0127 2764.1211 1065.6274 2759.8379 1077.2358 2751.2783 C 1088.8442 2742.7139 1094.6489 2727.2354 1094.6489 2704.8438 V 2640.627 H 1090.6968 C 1085.7573 2653.4707 1078.1812 2664.3809 1067.9741 2673.3535 C 1057.7627 2682.3291 1045.498 2689.1602 1031.1729 2693.8535 C 1016.8472 2698.5459 1001.1211 2700.8926 983.998 2700.8926 C 956.9912 2700.8926 932.1689 2694.6367 909.5312 2682.1211 C 886.8892 2669.6094 868.7778 2649.7656 855.1938 2622.5967 C 841.6094 2595.4287 834.8174 2559.9473 834.8174 2516.1455 C 834.8174 2470.3711 841.9375 2433.1572 856.1816 2404.5068 C 870.4219 2375.8555 888.8652 2354.8623 911.5068 2341.5244 C 934.145 2328.1875 957.9795 2321.5186 983.0103 2321.5186 C 1001.7813 2321.5186 1018.2446 2324.7715 1032.4077 2331.2744 C 1046.5669 2337.7812 1058.4224 2346.4258 1067.9741 2357.208 C 1077.522 2367.9951 1084.769 2379.8076 1089.7085 2392.6514 H 1092.6724 V 2326.458 H 1229.0098 V 2704.8438 C 1229.0098 2736.9521 1220.7363 2764.2451 1204.1875 2786.7207 C 1187.6406 2809.1963 1164.3809 2826.3623 1134.4136 2838.2178 C 1104.4429 2850.0732 1069.4556 2856.001 1029.4438 2856.001 Z M 1034.3833 2604.0732 C 1046.895 2604.0732 1057.6392 2600.5762 1066.6157 2593.5762 C 1075.5884 2586.5791 1082.5034 2576.5342 1087.3628 2563.4434 C 1092.2173 2550.3525 1094.6489 2534.5879 1094.6489 2516.1455 C 1094.6489 2497.374 1092.2173 2481.2813 1087.3628 2467.8594 C 1082.5034 2454.4404 1075.5884 2444.1484 1066.6157 2436.9854 C 1057.6392 2429.8232 1046.895 2426.2412 1034.3833 2426.2412 C 1021.8682 2426.2412 1011.2051 2429.8232 1002.3984 2436.9854 C 993.5879 2444.1484 986.8384 2454.4404 982.1455 2467.8594 C 977.4526 2481.2813 975.1064 2497.374 975.1064 2516.1455 C 975.1064 2534.916 977.4526 2550.8467 982.1455 2563.9375 C 986.8384 2577.0273 993.5879 2586.9922 1002.3984 2593.8232 C 1011.2051 2600.6572 1021.8682 2604.0732 1034.3833 2604.0732 Z M 1480.9316 2712.748 C 1439.7656 2712.748 1404.5273 2704.5586 1375.2207 2688.1729 C 1345.9102 2671.79 1323.4355 2648.9014 1307.793 2619.5098 C 1292.1484 2590.1182 1284.3301 2555.9951 1284.3301 2517.1328 C 1284.3301 2478.2754 1292.1484 2444.1484 1307.793 2414.7568 C 1323.4355 2385.3652 1345.9102 2362.4795 1375.2207 2346.0938 C 1404.5273 2329.7119 1439.7656 2321.5186 1480.9316 2321.5186 C 1522.0937 2321.5186 1557.332 2329.7119 1586.6426 2346.0938 C 1615.9492 2362.4795 1638.4258 2385.3652 1654.0703 2414.7568 C 1669.7129 2444.1484 1677.5352 2478.2754 1677.5352 2517.1328 C 1677.5352 2555.9951 1669.7129 2590.1182 1654.0703 2619.5098 C 1638.4258 2648.9014 1615.9492 2671.79 1586.6426 2688.1729 C 1557.332 2704.5586 1522.0937 2712.748 1480.9316 2712.748 Z M 1481.9199 2611.9766 C 1493.4434 2611.9766 1503.4082 2608.1094 1511.8047 2600.3682 C 1520.2031 2592.6309 1526.7051 2581.5967 1531.3184 2567.2715 C 1535.9258 2552.9463 1538.2324 2535.9043 1538.2324 2516.1455 C 1538.2324 2496.2236 1535.9258 2479.1396 1531.3184 2464.8955 C 1526.7051 2450.6543 1520.2031 2439.6641 1511.8047 2431.9219 C 1503.4082 2424.1846 1493.4434 2420.3135 1481.9199 2420.3135 C 1469.7324 2420.3135 1459.2773 2424.1846 1450.5527 2431.9219 C 1441.8223 2439.6641 1435.1543 2450.6543 1430.5469 2464.8955 C 1425.9355 2479.1396 1423.6309 2496.2236 1423.6309 2516.1455 C 1423.6309 2535.9043 1425.9355 2552.9463 1430.5469 2567.2715 C 1435.1543 2581.5967 1441.8223 2592.6309 1450.5527 2600.3682 C 1459.2773 2608.1094 1469.7324 2611.9766 1481.9199 2611.9766 Z M 2079.6309 2449.9521 H 1954.1621 C 1953.502 2442.2148 1950.7852 2435.5459 1946.0117 2429.9463 C 1941.2324 2424.3506 1935.1016 2420.0283 1927.6094 2416.9795 C 1920.1152 2413.9346 1911.8418 2412.4102 1902.7871 2412.4102 C 1891.0937 2412.4102 1881.0527 2414.5518 1872.6562 2418.832 C 1864.2578 2423.1152 1860.1406 2429.2051 1860.3066 2437.1094 C 1860.1406 2442.709 1862.5684 2447.8955 1867.5918 2452.6689 C 1872.6133 2457.4473 1882.3691 2461.1514 1896.8594 2463.7832 L 1973.9199 2477.6152 C 2012.7793 2484.6963 2041.7187 2496.5947 2060.7363 2513.3047 C 2079.7539 2530.0186 2089.3457 2552.3711 2089.5117 2580.3623 C 2089.3457 2607.3691 2081.3184 2630.79 2065.4297 2650.6299 C 2049.5371 2670.4746 2027.8867 2685.7871 2000.4727 2696.5703 C 1973.0566 2707.3525 1941.8125 2712.748 1906.7402 2712.748 C 1848.7793 2712.748 1803.457 2700.8926 1770.7734 2677.1816 C 1738.0859 2653.4707 1719.8516 2622.1875 1716.0645 2583.3262 H 1851.4141 C 1853.2246 2595.3477 1859.1953 2604.6094 1869.3203 2611.1123 C 1879.4473 2617.6191 1892.248 2620.8682 1907.7285 2620.8682 C 1920.2383 2620.8682 1930.5742 2618.7305 1938.7246 2614.4463 C 1946.875 2610.167 1951.0312 2604.0732 1951.1973 2596.1689 C 1951.0312 2588.9258 1947.4512 2583.1641 1940.4531 2578.8799 C 1933.4531 2574.6006 1922.5469 2571.1426 1907.7285 2568.5068 L 1840.5469 2556.6514 C 1801.8516 2549.9014 1772.873 2537.0586 1753.6074 2518.1211 C 1734.3418 2499.1875 1724.791 2474.8174 1724.957 2445.0127 C 1724.791 2418.6699 1731.748 2396.3174 1745.8262 2377.9551 C 1759.9043 2359.5967 1780.0742 2345.5996 1806.3398 2335.9678 C 1832.6016 2326.335 1863.7637 2321.5186 1899.8242 2321.5186 C 1954.6562 2321.5186 1997.916 2332.8799 2029.6172 2355.6025 C 2061.3125 2378.3262 2077.9844 2409.7783 2079.6309 2449.9521 Z"
	/>
</symbol>
			</defs>
			<rect
				width="100%"
				height="100%"
				fill="white"
			/>
			<use
				href="#logo"
				width="2296"
				height="3056"
				x="852"
				y="472"
			/>
		</svg>
	